<?xml version="1.0" encoding="UTF-8" standalone="no"?>
<!DOCTYPE svg PUBLIC "-//W3C//DTD SVG 1.1//EN"
 "http://www.w3.org/Graphics/SVG/1.1/DTD/svg11.dtd">
<!-- Generated by graphviz version 2.44.1 (20200629.0846)
 -->
<!-- Title: Graphical Class Hierarchy Pages: 1 -->
<svg width="167pt" height="66pt"
 viewBox="0.00 0.00 167.00 66.00" xmlns="http://www.w3.org/2000/svg" xmlns:xlink="http://www.w3.org/1999/xlink">
<g id="graph0" class="graph" transform="scale(1 1) rotate(0) translate(4 62)">
<title>Graphical Class Hierarchy</title>
<polygon fill="white" stroke="transparent" points="-4,4 -4,-62 163,-62 163,4 -4,4"/>
<!-- Node13 -->
<g id="node1" class="node">
<title>Node13</title>
<g id="a_node1"><a xlink:href="d5/db0/class_s_g.html" target="_top" xlink:title=" ">
<polygon fill="white" stroke="black" points="2.5,-38.5 2.5,-57.5 58.5,-57.5 58.5,-38.5 2.5,-38.5"/>
<text text-anchor="middle" x="30.5" y="-45.5" font-family="Helvetica,sans-Serif" font-size="10.00">SG&lt; X &gt;</text>
</a>
</g>
</g>
<!-- Node1 -->
<g id="node2" class="node">
<title>Node1</title>
<g id="a_node2"><a xlink:href="df/d62/class_h_l_d.html" target="_top" xlink:title=" ">
<polygon fill="white" stroke="black" points="97,-19.5 97,-38.5 159,-38.5 159,-19.5 97,-19.5"/>
<text text-anchor="middle" x="128" y="-26.5" font-family="Helvetica,sans-Serif" font-size="10.00">HLD&lt; X &gt;</text>
</a>
</g>
</g>
<!-- Node13&#45;&gt;Node1 -->
<g id="edge1" class="edge">
<title>Node13&#45;&gt;Node1</title>
<path fill="none" stroke="midnightblue" d="M68.48,-40.64C77.85,-38.78 87.81,-36.8 96.8,-35.01"/>
<polygon fill="midnightblue" stroke="midnightblue" points="67.74,-37.22 58.61,-42.61 69.1,-44.09 67.74,-37.22"/>
</g>
<!-- Node0 -->
<g id="node3" class="node">
<title>Node0</title>
<g id="a_node3"><a xlink:href="dd/df8/class_tree.html" target="_top" xlink:title=" ">
<polygon fill="white" stroke="black" points="0,-0.5 0,-19.5 61,-19.5 61,-0.5 0,-0.5"/>
<text text-anchor="middle" x="30.5" y="-7.5" font-family="Helvetica,sans-Serif" font-size="10.00">Tree&lt; X &gt;</text>
</a>
</g>
</g>
<!-- Node0&#45;&gt;Node1 -->
<g id="edge2" class="edge">
<title>Node0&#45;&gt;Node1</title>
<path fill="none" stroke="midnightblue" d="M71.11,-17.88C79.77,-19.6 88.79,-21.4 97,-23.03"/>
<polygon fill="midnightblue" stroke="midnightblue" points="71.68,-14.43 61.19,-15.91 70.32,-21.29 71.68,-14.43"/>
</g>
</g>
</svg>
