<?xml version="1.0" encoding="UTF-8" standalone="no"?>
<!DOCTYPE svg PUBLIC "-//W3C//DTD SVG 1.1//EN"
 "http://www.w3.org/Graphics/SVG/1.1/DTD/svg11.dtd">
<!-- Generated by graphviz version 2.44.1 (20200629.0846)
 -->
<!-- Title: range_queries::heavy_light_decomposition::HLD&lt; X &gt; Pages: 1 -->
<svg width="612pt" height="219pt"
 viewBox="0.00 0.00 612.00 219.49" xmlns="http://www.w3.org/2000/svg" xmlns:xlink="http://www.w3.org/1999/xlink">
<g id="graph0" class="graph" transform="scale(1 1) rotate(0) translate(4 215.49)">
<title>range_queries::heavy_light_decomposition::HLD&lt; X &gt;</title>
<polygon fill="white" stroke="transparent" points="-4,4 -4,-215.49 608,-215.49 608,4 -4,4"/>
<!-- Node1 -->
<g id="node1" class="node">
<title>Node1</title>
<g id="a_node1"><a xlink:title="The Heavy&#45;Light Decomposition class.">
<polygon fill="#bfbfbf" stroke="black" points="494,-55.49 494,-96.49 604,-96.49 604,-55.49 494,-55.49"/>
<text text-anchor="start" x="502" y="-84.49" font-family="Helvetica,sans-Serif" font-size="10.00">range_queries::heavy</text>
<text text-anchor="start" x="502" y="-73.49" font-family="Helvetica,sans-Serif" font-size="10.00">_light_decomposition</text>
<text text-anchor="middle" x="549" y="-62.49" font-family="Helvetica,sans-Serif" font-size="10.00">::HLD&lt; X &gt;</text>
</a>
</g>
</g>
<!-- Node2 -->
<g id="node2" class="node">
<title>Node2</title>
<g id="a_node2"><a xlink:href="../../d1/d51/classrange__queries_1_1heavy__light__decomposition_1_1_tree.html" target="_top" xlink:title="A Basic Tree, which supports binary lifting.">
<polygon fill="white" stroke="black" points="347,-115.49 347,-156.49 457,-156.49 457,-115.49 347,-115.49"/>
<text text-anchor="start" x="355" y="-144.49" font-family="Helvetica,sans-Serif" font-size="10.00">range_queries::heavy</text>
<text text-anchor="start" x="355" y="-133.49" font-family="Helvetica,sans-Serif" font-size="10.00">_light_decomposition</text>
<text text-anchor="middle" x="402" y="-122.49" font-family="Helvetica,sans-Serif" font-size="10.00">::Tree&lt; X &gt;</text>
</a>
</g>
</g>
<!-- Node2&#45;&gt;Node1 -->
<g id="edge1" class="edge">
<title>Node2&#45;&gt;Node1</title>
<path fill="none" stroke="midnightblue" d="M462.28,-111.46C474.15,-106.55 486.5,-101.44 498.01,-96.68"/>
<polygon fill="midnightblue" stroke="midnightblue" points="460.8,-108.29 452.9,-115.34 463.48,-114.75 460.8,-108.29"/>
</g>
<!-- Node3 -->
<g id="node3" class="node">
<title>Node3</title>
<g id="a_node3"><a target="_blank" xlink:href="http://en.cppreference.com/w/cpp/container/vector.html" xlink:title=" ">
<polygon fill="white" stroke="black" points="156,-131.99 156,-161.99 275,-161.99 275,-131.99 156,-131.99"/>
<text text-anchor="start" x="164" y="-149.99" font-family="Helvetica,sans-Serif" font-size="10.00">std::vector&lt; std::vector</text>
<text text-anchor="middle" x="215.5" y="-138.99" font-family="Helvetica,sans-Serif" font-size="10.00">&lt; int &gt; &gt;</text>
</a>
</g>
</g>
<!-- Node3&#45;&gt;Node2 -->
<g id="edge2" class="edge">
<title>Node3&#45;&gt;Node2</title>
<path fill="none" stroke="#9a32cd" stroke-dasharray="5,2" d="M285.29,-142.89C305.64,-141.68 327.62,-140.37 346.91,-139.22"/>
<polygon fill="#9a32cd" stroke="#9a32cd" points="284.9,-139.41 275.13,-143.5 285.32,-146.39 284.9,-139.41"/>
<text text-anchor="middle" x="311" y="-144.99" font-family="Helvetica,sans-Serif" font-size="10.00"> t_par</text>
</g>
<!-- Node4 -->
<g id="node4" class="node">
<title>Node4</title>
<g id="a_node4"><a target="_blank" xlink:href="http://en.cppreference.com/w/cpp/container/vector.html" xlink:title=" ">
<polygon fill="white" stroke="black" points="163.5,-180.99 163.5,-210.99 267.5,-210.99 267.5,-180.99 163.5,-180.99"/>
<text text-anchor="start" x="171.5" y="-198.99" font-family="Helvetica,sans-Serif" font-size="10.00">std::vector&lt; std::list</text>
<text text-anchor="middle" x="215.5" y="-187.99" font-family="Helvetica,sans-Serif" font-size="10.00">&lt; int &gt; &gt;</text>
</a>
</g>
</g>
<!-- Node4&#45;&gt;Node2 -->
<g id="edge3" class="edge">
<title>Node4&#45;&gt;Node2</title>
<path fill="none" stroke="#9a32cd" stroke-dasharray="5,2" d="M272.58,-177.75C296.19,-170.08 323.54,-161.18 346.93,-153.58"/>
<polygon fill="#9a32cd" stroke="#9a32cd" points="271.48,-174.43 263.06,-180.85 273.65,-181.09 271.48,-174.43"/>
<text text-anchor="middle" x="311" y="-171.99" font-family="Helvetica,sans-Serif" font-size="10.00"> t_adj</text>
</g>
<!-- Node5 -->
<g id="node5" class="node">
<title>Node5</title>
<g id="a_node5"><a target="_blank" xlink:href="http://en.cppreference.com/w/cpp/container/list.html" xlink:title=" ">
<polygon fill="white" stroke="black" points="0,-186.49 0,-205.49 77,-205.49 77,-186.49 0,-186.49"/>
<text text-anchor="middle" x="38.5" y="-193.49" font-family="Helvetica,sans-Serif" font-size="10.00">std::list&lt; int &gt;</text>
</a>
</g>
</g>
<!-- Node5&#45;&gt;Node4 -->
<g id="edge4" class="edge">
<title>Node5&#45;&gt;Node4</title>
<path fill="none" stroke="#9a32cd" stroke-dasharray="5,2" d="M87.17,-195.99C110.8,-195.99 139.34,-195.99 163.41,-195.99"/>
<polygon fill="#9a32cd" stroke="#9a32cd" points="87.04,-192.49 77.04,-195.99 87.04,-199.49 87.04,-192.49"/>
<text text-anchor="middle" x="116.5" y="-198.99" font-family="Helvetica,sans-Serif" font-size="10.00"> elements</text>
</g>
<!-- Node6 -->
<g id="node6" class="node">
<title>Node6</title>
<g id="a_node6"><a target="_blank" xlink:href="http://en.cppreference.com/w/cpp/container/vector.html" xlink:title=" ">
<polygon fill="white" stroke="black" points="169.5,-8.49 169.5,-27.49 261.5,-27.49 261.5,-8.49 169.5,-8.49"/>
<text text-anchor="middle" x="215.5" y="-15.49" font-family="Helvetica,sans-Serif" font-size="10.00">std::vector&lt; int &gt;</text>
</a>
</g>
</g>
<!-- Node6&#45;&gt;Node1 -->
<g id="edge9" class="edge">
<title>Node6&#45;&gt;Node1</title>
<path fill="none" stroke="#9a32cd" stroke-dasharray="5,2" d="M271.48,-7.09C321.15,0.49 395.65,6.17 457,-12.99 483.59,-21.3 509.26,-40.41 526.51,-55.42"/>
<polygon fill="#9a32cd" stroke="#9a32cd" points="270.9,-3.64 261.58,-8.68 272.01,-10.55 270.9,-3.64"/>
<text text-anchor="middle" x="402" y="-37.99" font-family="Helvetica,sans-Serif" font-size="10.00"> h_parent</text>
<text text-anchor="middle" x="402" y="-26.99" font-family="Helvetica,sans-Serif" font-size="10.00">h_heavychlid</text>
<text text-anchor="middle" x="402" y="-15.99" font-family="Helvetica,sans-Serif" font-size="10.00">h_label</text>
</g>
<!-- Node6&#45;&gt;Node2 -->
<g id="edge5" class="edge">
<title>Node6&#45;&gt;Node2</title>
<path fill="none" stroke="#9a32cd" stroke-dasharray="5,2" d="M271.56,-23.9C291.84,-28.61 313.6,-37.02 329,-51.99 347.14,-69.63 330.84,-86.52 347,-105.99 349.88,-109.46 353.26,-112.59 356.91,-115.42"/>
<polygon fill="#9a32cd" stroke="#9a32cd" points="272.25,-20.47 261.75,-21.87 270.84,-27.33 272.25,-20.47"/>
<text text-anchor="middle" x="311" y="-65.99" font-family="Helvetica,sans-Serif" font-size="10.00"> t_depth</text>
<text text-anchor="middle" x="311" y="-54.99" font-family="Helvetica,sans-Serif" font-size="10.00">t_size</text>
</g>
<!-- Node7 -->
<g id="node7" class="node">
<title>Node7</title>
<g id="a_node7"><a target="_blank" xlink:href="http://en.cppreference.com/w/cpp/container/vector.html" xlink:title=" ">
<polygon fill="white" stroke="black" points="171.5,-81.49 171.5,-100.49 259.5,-100.49 259.5,-81.49 171.5,-81.49"/>
<text text-anchor="middle" x="215.5" y="-88.49" font-family="Helvetica,sans-Serif" font-size="10.00">std::vector&lt; X &gt;</text>
</a>
</g>
</g>
<!-- Node7&#45;&gt;Node2 -->
<g id="edge6" class="edge">
<title>Node7&#45;&gt;Node2</title>
<path fill="none" stroke="#9a32cd" stroke-dasharray="5,2" d="M265.64,-102.98C290.67,-109.08 321.18,-116.52 346.88,-122.79"/>
<polygon fill="#9a32cd" stroke="#9a32cd" points="266.17,-99.5 255.63,-100.53 264.51,-106.3 266.17,-99.5"/>
<text text-anchor="middle" x="311" y="-119.99" font-family="Helvetica,sans-Serif" font-size="10.00"> t_val</text>
</g>
<!-- Node8 -->
<g id="node8" class="node">
<title>Node8</title>
<g id="a_node8"><a xlink:href="../../d9/d35/classrange__queries_1_1heavy__light__decomposition_1_1_s_g.html" target="_top" xlink:title="Segment Tree, to store heavy chains.">
<polygon fill="white" stroke="black" points="347,-55.49 347,-96.49 457,-96.49 457,-55.49 347,-55.49"/>
<text text-anchor="start" x="355" y="-84.49" font-family="Helvetica,sans-Serif" font-size="10.00">range_queries::heavy</text>
<text text-anchor="start" x="355" y="-73.49" font-family="Helvetica,sans-Serif" font-size="10.00">_light_decomposition</text>
<text text-anchor="middle" x="402" y="-62.49" font-family="Helvetica,sans-Serif" font-size="10.00">::SG&lt; X &gt;</text>
</a>
</g>
</g>
<!-- Node7&#45;&gt;Node8 -->
<g id="edge8" class="edge">
<title>Node7&#45;&gt;Node8</title>
<path fill="none" stroke="#9a32cd" stroke-dasharray="5,2" d="M269.78,-82.59C277.56,-81.58 285.47,-80.67 293,-79.99 310.47,-78.42 329.59,-77.46 346.82,-76.88"/>
<polygon fill="#9a32cd" stroke="#9a32cd" points="269.13,-79.15 259.7,-83.97 270.08,-86.09 269.13,-79.15"/>
<text text-anchor="middle" x="311" y="-82.99" font-family="Helvetica,sans-Serif" font-size="10.00"> s_tree</text>
</g>
<!-- Node8&#45;&gt;Node1 -->
<g id="edge7" class="edge">
<title>Node8&#45;&gt;Node1</title>
<path fill="none" stroke="midnightblue" d="M467.57,-75.99C476.32,-75.99 485.23,-75.99 493.77,-75.99"/>
<polygon fill="midnightblue" stroke="midnightblue" points="467.41,-72.49 457.41,-75.99 467.41,-79.49 467.41,-72.49"/>
</g>
</g>
</svg>
