<?xml version="1.0" encoding="UTF-8" standalone="no"?>
<!DOCTYPE svg PUBLIC "-//W3C//DTD SVG 1.1//EN"
 "http://www.w3.org/Graphics/SVG/1.1/DTD/svg11.dtd">
<!-- Generated by graphviz version 2.44.1 (20200629.0846)
 -->
<!-- Title: Tree&lt; X &gt; Pages: 1 -->
<svg width="416pt" height="165pt"
 viewBox="0.00 0.00 416.00 164.50" xmlns="http://www.w3.org/2000/svg" xmlns:xlink="http://www.w3.org/1999/xlink">
<g id="graph0" class="graph" transform="scale(1 1) rotate(0) translate(4 160.5)">
<title>Tree&lt; X &gt;</title>
<polygon fill="white" stroke="transparent" points="-4,4 -4,-160.5 412,-160.5 412,4 -4,4"/>
<!-- Node1 -->
<g id="node1" class="node">
<title>Node1</title>
<g id="a_node1"><a xlink:title=" ">
<polygon fill="#bfbfbf" stroke="black" points="347,-60.5 347,-79.5 408,-79.5 408,-60.5 347,-60.5"/>
<text text-anchor="middle" x="377.5" y="-67.5" font-family="Helvetica,sans-Serif" font-size="10.00">Tree&lt; X &gt;</text>
</a>
</g>
</g>
<!-- Node2 -->
<g id="node2" class="node">
<title>Node2</title>
<g id="a_node2"><a target="_blank" xlink:href="http://en.cppreference.com/w/cpp/container/vector.html" xlink:title=" ">
<polygon fill="white" stroke="black" points="156,-126 156,-156 275,-156 275,-126 156,-126"/>
<text text-anchor="start" x="164" y="-144" font-family="Helvetica,sans-Serif" font-size="10.00">std::vector&lt; std::vector</text>
<text text-anchor="middle" x="215.5" y="-133" font-family="Helvetica,sans-Serif" font-size="10.00">&lt; int &gt; &gt;</text>
</a>
</g>
</g>
<!-- Node2&#45;&gt;Node1 -->
<g id="edge1" class="edge">
<title>Node2&#45;&gt;Node1</title>
<path fill="none" stroke="#9a32cd" stroke-dasharray="5,2" d="M266.98,-122.3C286.57,-114.66 309.05,-105.41 329,-96 339.54,-91.03 351.02,-84.77 360.05,-79.64"/>
<polygon fill="#9a32cd" stroke="#9a32cd" points="265.69,-119.05 257.62,-125.92 268.21,-125.58 265.69,-119.05"/>
<text text-anchor="middle" x="311" y="-113" font-family="Helvetica,sans-Serif" font-size="10.00"> t_par</text>
</g>
<!-- Node3 -->
<g id="node3" class="node">
<title>Node3</title>
<g id="a_node3"><a target="_blank" xlink:href="http://en.cppreference.com/w/cpp/container/vector.html" xlink:title=" ">
<polygon fill="white" stroke="black" points="163.5,-77 163.5,-107 267.5,-107 267.5,-77 163.5,-77"/>
<text text-anchor="start" x="171.5" y="-95" font-family="Helvetica,sans-Serif" font-size="10.00">std::vector&lt; std::list</text>
<text text-anchor="middle" x="215.5" y="-84" font-family="Helvetica,sans-Serif" font-size="10.00">&lt; int &gt; &gt;</text>
</a>
</g>
</g>
<!-- Node3&#45;&gt;Node1 -->
<g id="edge2" class="edge">
<title>Node3&#45;&gt;Node1</title>
<path fill="none" stroke="#9a32cd" stroke-dasharray="5,2" d="M277.57,-83.6C301.32,-80.34 327.42,-76.75 346.85,-74.08"/>
<polygon fill="#9a32cd" stroke="#9a32cd" points="276.99,-80.15 267.56,-84.98 277.95,-87.08 276.99,-80.15"/>
<text text-anchor="middle" x="311" y="-84" font-family="Helvetica,sans-Serif" font-size="10.00"> t_adj</text>
</g>
<!-- Node4 -->
<g id="node4" class="node">
<title>Node4</title>
<g id="a_node4"><a target="_blank" xlink:href="http://en.cppreference.com/w/cpp/container/list.html" xlink:title=" ">
<polygon fill="white" stroke="black" points="0,-82.5 0,-101.5 77,-101.5 77,-82.5 0,-82.5"/>
<text text-anchor="middle" x="38.5" y="-89.5" font-family="Helvetica,sans-Serif" font-size="10.00">std::list&lt; int &gt;</text>
</a>
</g>
</g>
<!-- Node4&#45;&gt;Node3 -->
<g id="edge3" class="edge">
<title>Node4&#45;&gt;Node3</title>
<path fill="none" stroke="#9a32cd" stroke-dasharray="5,2" d="M87.17,-92C110.8,-92 139.34,-92 163.41,-92"/>
<polygon fill="#9a32cd" stroke="#9a32cd" points="87.04,-88.5 77.04,-92 87.04,-95.5 87.04,-88.5"/>
<text text-anchor="middle" x="116.5" y="-95" font-family="Helvetica,sans-Serif" font-size="10.00"> elements</text>
</g>
<!-- Node5 -->
<g id="node5" class="node">
<title>Node5</title>
<g id="a_node5"><a target="_blank" xlink:href="http://en.cppreference.com/w/cpp/container/vector.html" xlink:title=" ">
<polygon fill="white" stroke="black" points="169.5,-38.5 169.5,-57.5 261.5,-57.5 261.5,-38.5 169.5,-38.5"/>
<text text-anchor="middle" x="215.5" y="-45.5" font-family="Helvetica,sans-Serif" font-size="10.00">std::vector&lt; int &gt;</text>
</a>
</g>
</g>
<!-- Node5&#45;&gt;Node1 -->
<g id="edge4" class="edge">
<title>Node5&#45;&gt;Node1</title>
<path fill="none" stroke="#9a32cd" stroke-dasharray="5,2" d="M271.78,-45.61C290.15,-45.83 310.6,-47.2 329,-51 338.57,-52.98 348.68,-56.76 357.11,-60.44"/>
<polygon fill="#9a32cd" stroke="#9a32cd" points="271.54,-42.11 261.54,-45.59 271.53,-49.11 271.54,-42.11"/>
<text text-anchor="middle" x="311" y="-65" font-family="Helvetica,sans-Serif" font-size="10.00"> t_depth</text>
<text text-anchor="middle" x="311" y="-54" font-family="Helvetica,sans-Serif" font-size="10.00">t_size</text>
</g>
<!-- Node6 -->
<g id="node6" class="node">
<title>Node6</title>
<g id="a_node6"><a target="_blank" xlink:href="http://en.cppreference.com/w/cpp/container/vector.html" xlink:title=" ">
<polygon fill="white" stroke="black" points="171.5,-0.5 171.5,-19.5 259.5,-19.5 259.5,-0.5 171.5,-0.5"/>
<text text-anchor="middle" x="215.5" y="-7.5" font-family="Helvetica,sans-Serif" font-size="10.00">std::vector&lt; X &gt;</text>
</a>
</g>
</g>
<!-- Node6&#45;&gt;Node1 -->
<g id="edge5" class="edge">
<title>Node6&#45;&gt;Node1</title>
<path fill="none" stroke="#9a32cd" stroke-dasharray="5,2" d="M269.87,-14.39C289.16,-17.4 310.68,-22.47 329,-31 344.28,-38.12 358.79,-51.31 367.67,-60.36"/>
<polygon fill="#9a32cd" stroke="#9a32cd" points="270.11,-10.89 259.72,-12.96 269.13,-17.82 270.11,-10.89"/>
<text text-anchor="middle" x="311" y="-34" font-family="Helvetica,sans-Serif" font-size="10.00"> t_val</text>
</g>
</g>
</svg>
