<?xml version="1.0" encoding="UTF-8" standalone="no"?>
<!DOCTYPE svg PUBLIC "-//W3C//DTD SVG 1.1//EN"
 "http://www.w3.org/Graphics/SVG/1.1/DTD/svg11.dtd">
<!-- Generated by graphviz version 2.44.1 (20200629.0846)
 -->
<!-- Title: range_queries::Tree::Tree Pages: 1 -->
<svg width="245pt" height="66pt"
 viewBox="0.00 0.00 245.00 66.00" xmlns="http://www.w3.org/2000/svg" xmlns:xlink="http://www.w3.org/1999/xlink">
<g id="graph0" class="graph" transform="scale(1 1) rotate(0) translate(4 62)">
<title>range_queries::Tree::Tree</title>
<polygon fill="white" stroke="transparent" points="-4,4 -4,-62 241,-62 241,4 -4,4"/>
<!-- Node1 -->
<g id="node1" class="node">
<title>Node1</title>
<g id="a_node1"><a xlink:title="Class parameterized constructor, resizes the and initilizes the data members.">
<polygon fill="#bfbfbf" stroke="black" points="0,-14 0,-44 103,-44 103,-14 0,-14"/>
<text text-anchor="start" x="8" y="-32" font-family="Helvetica,sans-Serif" font-size="10.00">range_queries::Tree</text>
<text text-anchor="middle" x="51.5" y="-21" font-family="Helvetica,sans-Serif" font-size="10.00">::Tree</text>
</a>
</g>
</g>
<!-- Node2 -->
<g id="node2" class="node">
<title>Node2</title>
<g id="a_node2"><a target="_blank" xlink:href="http://en.cppreference.com/w/cpp/container/vector/assign.html#" xlink:title=" ">
<polygon fill="white" stroke="black" points="139,-38.5 139,-57.5 237,-57.5 237,-38.5 139,-38.5"/>
<text text-anchor="middle" x="188" y="-45.5" font-family="Helvetica,sans-Serif" font-size="10.00">std::vector::assign</text>
</a>
</g>
</g>
<!-- Node1&#45;&gt;Node2 -->
<g id="edge1" class="edge">
<title>Node1&#45;&gt;Node2</title>
<path fill="none" stroke="midnightblue" d="M103.35,-36.18C111.6,-37.35 120.2,-38.56 128.61,-39.75"/>
<polygon fill="midnightblue" stroke="midnightblue" points="128.35,-43.25 138.75,-41.18 129.33,-36.32 128.35,-43.25"/>
</g>
<!-- Node3 -->
<g id="node3" class="node">
<title>Node3</title>
<g id="a_node3"><a target="_blank" xlink:href="http://en.cppreference.com/w/cpp/container/vector/resize.html#" xlink:title=" ">
<polygon fill="white" stroke="black" points="140.5,-0.5 140.5,-19.5 235.5,-19.5 235.5,-0.5 140.5,-0.5"/>
<text text-anchor="middle" x="188" y="-7.5" font-family="Helvetica,sans-Serif" font-size="10.00">std::vector::resize</text>
</a>
</g>
</g>
<!-- Node1&#45;&gt;Node3 -->
<g id="edge2" class="edge">
<title>Node1&#45;&gt;Node3</title>
<path fill="none" stroke="midnightblue" d="M103.35,-21.82C112.1,-20.58 121.26,-19.29 130.16,-18.03"/>
<polygon fill="midnightblue" stroke="midnightblue" points="130.66,-21.49 140.07,-16.63 129.68,-14.56 130.66,-21.49"/>
</g>
</g>
</svg>
