<?xml version="1.0" encoding="UTF-8" standalone="no"?>
<!DOCTYPE svg PUBLIC "-//W3C//DTD SVG 1.1//EN"
 "http://www.w3.org/Graphics/SVG/1.1/DTD/svg11.dtd">
<!-- Generated by graphviz version 2.44.1 (20200629.0846)
 -->
<!-- Title: range_queries::HLD::query Pages: 1 -->
<svg width="409pt" height="83pt"
 viewBox="0.00 0.00 409.00 83.00" xmlns="http://www.w3.org/2000/svg" xmlns:xlink="http://www.w3.org/1999/xlink">
<g id="graph0" class="graph" transform="scale(1 1) rotate(0) translate(4 79)">
<title>range_queries::HLD::query</title>
<polygon fill="white" stroke="transparent" points="-4,4 -4,-79 405,-79 405,4 -4,4"/>
<!-- Node1 -->
<g id="node1" class="node">
<title>Node1</title>
<g id="a_node1"><a xlink:title="This function returns the sum of node values in the simple path from from node_1 to node_2.">
<polygon fill="#bfbfbf" stroke="black" points="0,-22.5 0,-52.5 104,-52.5 104,-22.5 0,-22.5"/>
<text text-anchor="start" x="8" y="-40.5" font-family="Helvetica,sans-Serif" font-size="10.00">range_queries::HLD</text>
<text text-anchor="middle" x="52" y="-29.5" font-family="Helvetica,sans-Serif" font-size="10.00">::query</text>
</a>
</g>
</g>
<!-- Node2 -->
<g id="node2" class="node">
<title>Node2</title>
<g id="a_node2"><a xlink:href="../../d4/d32/classrange__queries_1_1_h_l_d.html#a524784ddef09ae6d3ff1d3fc52c95343" target="_top" xlink:title="Utility function to break down a path query into two chain queries.">
<polygon fill="white" stroke="black" points="149,-44.5 149,-74.5 253,-74.5 253,-44.5 149,-44.5"/>
<text text-anchor="start" x="157" y="-62.5" font-family="Helvetica,sans-Serif" font-size="10.00">range_queries::HLD</text>
<text text-anchor="middle" x="201" y="-51.5" font-family="Helvetica,sans-Serif" font-size="10.00">::chain_query</text>
</a>
</g>
</g>
<!-- Node1&#45;&gt;Node2 -->
<g id="edge1" class="edge">
<title>Node1&#45;&gt;Node2</title>
<path fill="none" stroke="midnightblue" d="M104,-45.13C115.16,-46.8 127.09,-48.59 138.6,-50.31"/>
<polygon fill="midnightblue" stroke="midnightblue" points="138.18,-53.79 148.59,-51.81 139.22,-46.86 138.18,-53.79"/>
</g>
<!-- Node3 -->
<g id="node3" class="node">
<title>Node3</title>
<g id="a_node3"><a xlink:href="../../d4/d96/classrange__queries_1_1_tree.html#af4403514c896aec8452bc57ac1ca48ca" target="_top" xlink:title="The function returns the least common ancestor of two nodes.">
<polygon fill="white" stroke="black" points="140,-6 140,-25 262,-25 262,-6 140,-6"/>
<text text-anchor="middle" x="201" y="-13" font-family="Helvetica,sans-Serif" font-size="10.00">range_queries::Tree::lca</text>
</a>
</g>
</g>
<!-- Node1&#45;&gt;Node3 -->
<g id="edge2" class="edge">
<title>Node1&#45;&gt;Node3</title>
<path fill="none" stroke="midnightblue" d="M104,-29.87C112.35,-28.62 121.12,-27.31 129.83,-26"/>
<polygon fill="midnightblue" stroke="midnightblue" points="130.62,-29.42 139.99,-24.48 129.59,-22.5 130.62,-29.42"/>
</g>
<!-- Node4 -->
<g id="node4" class="node">
<title>Node4</title>
<g id="a_node4"><a xlink:href="../../d4/d96/classrange__queries_1_1_tree.html#a34e36164b0686022215b23899b47beb0" target="_top" xlink:title="The function lifts a node, k units up the tree. The lifting is done in place, and the result is store...">
<polygon fill="white" stroke="black" points="298,-0.5 298,-30.5 401,-30.5 401,-0.5 298,-0.5"/>
<text text-anchor="start" x="306" y="-18.5" font-family="Helvetica,sans-Serif" font-size="10.00">range_queries::Tree</text>
<text text-anchor="middle" x="349.5" y="-7.5" font-family="Helvetica,sans-Serif" font-size="10.00">::lift</text>
</a>
</g>
</g>
<!-- Node3&#45;&gt;Node4 -->
<g id="edge3" class="edge">
<title>Node3&#45;&gt;Node4</title>
<path fill="none" stroke="midnightblue" d="M262.01,-15.5C270.44,-15.5 279.11,-15.5 287.55,-15.5"/>
<polygon fill="midnightblue" stroke="midnightblue" points="287.71,-19 297.71,-15.5 287.71,-12 287.71,-19"/>
</g>
</g>
</svg>
