<?xml version="1.0" encoding="UTF-8" standalone="no"?>
<!DOCTYPE svg PUBLIC "-//W3C//DTD SVG 1.1//EN"
 "http://www.w3.org/Graphics/SVG/1.1/DTD/svg11.dtd">
<!-- Generated by graphviz version 2.44.1 (20200629.0846)
 -->
<!-- Title: range_queries::HLD::init Pages: 1 -->
<svg width="391pt" height="259pt"
 viewBox="0.00 0.00 391.00 259.00" xmlns="http://www.w3.org/2000/svg" xmlns:xlink="http://www.w3.org/1999/xlink">
<g id="graph0" class="graph" transform="scale(1 1) rotate(0) translate(4 255)">
<title>range_queries::HLD::init</title>
<polygon fill="white" stroke="transparent" points="-4,4 -4,-255 387,-255 387,4 -4,4"/>
<!-- Node1 -->
<g id="node1" class="node">
<title>Node1</title>
<g id="a_node1"><a xlink:title="This function must be called after the tree adjacency list and node values are populated The function...">
<polygon fill="#bfbfbf" stroke="black" points="0,-122.5 0,-152.5 104,-152.5 104,-122.5 0,-122.5"/>
<text text-anchor="start" x="8" y="-140.5" font-family="Helvetica,sans-Serif" font-size="10.00">range_queries::HLD</text>
<text text-anchor="middle" x="52" y="-129.5" font-family="Helvetica,sans-Serif" font-size="10.00">::init</text>
</a>
</g>
</g>
<!-- Node2 -->
<g id="node2" class="node">
<title>Node2</title>
<g id="a_node2"><a xlink:href="../../d4/d77/classrange__queries_1_1_s_g.html#a2645784fa018ab055e518cf9282e93e1" target="_top" xlink:title="Function that specifies the type of operation involved when segments are combined.">
<polygon fill="white" stroke="black" points="140,-220.5 140,-250.5 244,-250.5 244,-220.5 140,-220.5"/>
<text text-anchor="start" x="148" y="-238.5" font-family="Helvetica,sans-Serif" font-size="10.00">range_queries::SG::</text>
<text text-anchor="middle" x="192" y="-227.5" font-family="Helvetica,sans-Serif" font-size="10.00">combine</text>
</a>
</g>
</g>
<!-- Node1&#45;&gt;Node2 -->
<g id="edge1" class="edge">
<title>Node1&#45;&gt;Node2</title>
<path fill="none" stroke="midnightblue" d="M68.35,-152.77C84.99,-168.78 112.83,-193.99 140,-211.5 142.16,-212.89 144.41,-214.25 146.72,-215.57"/>
<polygon fill="midnightblue" stroke="midnightblue" points="145.3,-218.78 155.77,-220.43 148.62,-212.61 145.3,-218.78"/>
</g>
<!-- Node3 -->
<g id="node3" class="node">
<title>Node3</title>
<g id="a_node3"><a xlink:href="../../d4/d32/classrange__queries_1_1_h_l_d.html#a11ec72d874b1c9a56b9f81f4fec598c4" target="_top" xlink:title="Utility function to assign heavy child to each node (&#45;1 for a leaf node)">
<polygon fill="white" stroke="black" points="140,-171.5 140,-201.5 244,-201.5 244,-171.5 140,-171.5"/>
<text text-anchor="start" x="148" y="-189.5" font-family="Helvetica,sans-Serif" font-size="10.00">range_queries::HLD</text>
<text text-anchor="middle" x="192" y="-178.5" font-family="Helvetica,sans-Serif" font-size="10.00">::dfs_hc</text>
</a>
</g>
</g>
<!-- Node1&#45;&gt;Node3 -->
<g id="edge2" class="edge">
<title>Node1&#45;&gt;Node3</title>
<path fill="none" stroke="midnightblue" d="M95.53,-152.6C109.17,-157.45 124.44,-162.87 138.7,-167.93"/>
<polygon fill="midnightblue" stroke="midnightblue" points="137.78,-171.32 148.37,-171.36 140.12,-164.72 137.78,-171.32"/>
</g>
<!-- Node4 -->
<g id="node4" class="node">
<title>Node4</title>
<g id="a_node4"><a xlink:href="../../d4/d32/classrange__queries_1_1_h_l_d.html#a893ecd8aff1a064022ba0f3e220d570c" target="_top" xlink:title="Utility function to lable the nodes so that heavy chains have a contigous lable.">
<polygon fill="white" stroke="black" points="140,-122.5 140,-152.5 244,-152.5 244,-122.5 140,-122.5"/>
<text text-anchor="start" x="148" y="-140.5" font-family="Helvetica,sans-Serif" font-size="10.00">range_queries::HLD</text>
<text text-anchor="middle" x="192" y="-129.5" font-family="Helvetica,sans-Serif" font-size="10.00">::dfs_labels</text>
</a>
</g>
</g>
<!-- Node1&#45;&gt;Node4 -->
<g id="edge3" class="edge">
<title>Node1&#45;&gt;Node4</title>
<path fill="none" stroke="midnightblue" d="M104.39,-137.5C112.56,-137.5 121.08,-137.5 129.46,-137.5"/>
<polygon fill="midnightblue" stroke="midnightblue" points="129.57,-141 139.57,-137.5 129.57,-134 129.57,-141"/>
</g>
<!-- Node5 -->
<g id="node5" class="node">
<title>Node5</title>
<g id="a_node5"><a xlink:href="../../d4/d32/classrange__queries_1_1_h_l_d.html#add52a9321b3723e12e5ab8020930a7ec" target="_top" xlink:title="Utility function to assign highest parent that can be reached though heavy chains.">
<polygon fill="white" stroke="black" points="140,-73.5 140,-103.5 244,-103.5 244,-73.5 140,-73.5"/>
<text text-anchor="start" x="148" y="-91.5" font-family="Helvetica,sans-Serif" font-size="10.00">range_queries::HLD</text>
<text text-anchor="middle" x="192" y="-80.5" font-family="Helvetica,sans-Serif" font-size="10.00">::dfs_par</text>
</a>
</g>
</g>
<!-- Node1&#45;&gt;Node5 -->
<g id="edge4" class="edge">
<title>Node1&#45;&gt;Node5</title>
<path fill="none" stroke="midnightblue" d="M95.53,-122.4C109.17,-117.55 124.44,-112.13 138.7,-107.07"/>
<polygon fill="midnightblue" stroke="midnightblue" points="140.12,-110.28 148.37,-103.64 137.78,-103.68 140.12,-110.28"/>
</g>
<!-- Node6 -->
<g id="node6" class="node">
<title>Node6</title>
<g id="a_node6"><a xlink:href="../../d4/d96/classrange__queries_1_1_tree.html#a9925842d6dc19e232e899e57a210898c" target="_top" xlink:title="This function must be called after the tree adjacency list and node values are populated The function...">
<polygon fill="white" stroke="black" points="140.5,-24.5 140.5,-54.5 243.5,-54.5 243.5,-24.5 140.5,-24.5"/>
<text text-anchor="start" x="148.5" y="-42.5" font-family="Helvetica,sans-Serif" font-size="10.00">range_queries::Tree</text>
<text text-anchor="middle" x="192" y="-31.5" font-family="Helvetica,sans-Serif" font-size="10.00">::init</text>
</a>
</g>
</g>
<!-- Node1&#45;&gt;Node6 -->
<g id="edge5" class="edge">
<title>Node1&#45;&gt;Node6</title>
<path fill="none" stroke="midnightblue" d="M68.75,-122.25C85.5,-106.53 113.23,-81.92 140,-64.5 142.73,-62.73 145.6,-60.99 148.53,-59.32"/>
<polygon fill="midnightblue" stroke="midnightblue" points="150.3,-62.34 157.44,-54.51 146.97,-56.18 150.3,-62.34"/>
</g>
<!-- Node7 -->
<g id="node7" class="node">
<title>Node7</title>
<g id="a_node7"><a xlink:href="../../d4/d96/classrange__queries_1_1_tree.html#a14f0af3e162835106006ff5bac51c0d1" target="_top" xlink:title="Utility function to populate the t_par vector.">
<polygon fill="white" stroke="black" points="280,-49.5 280,-79.5 383,-79.5 383,-49.5 280,-49.5"/>
<text text-anchor="start" x="288" y="-67.5" font-family="Helvetica,sans-Serif" font-size="10.00">range_queries::Tree</text>
<text text-anchor="middle" x="331.5" y="-56.5" font-family="Helvetica,sans-Serif" font-size="10.00">::dfs_lca</text>
</a>
</g>
</g>
<!-- Node6&#45;&gt;Node7 -->
<g id="edge6" class="edge">
<title>Node6&#45;&gt;Node7</title>
<path fill="none" stroke="midnightblue" d="M243.81,-48.74C252.28,-50.28 261.14,-51.89 269.82,-53.47"/>
<polygon fill="midnightblue" stroke="midnightblue" points="269.43,-56.95 279.9,-55.3 270.69,-50.07 269.43,-56.95"/>
</g>
<!-- Node8 -->
<g id="node8" class="node">
<title>Node8</title>
<g id="a_node8"><a xlink:href="../../d4/d96/classrange__queries_1_1_tree.html#ad0130dc2b48651852e8b505aa7c03d19" target="_top" xlink:title="Utility function to compute sub&#45;tree sizes.">
<polygon fill="white" stroke="black" points="280,-0.5 280,-30.5 383,-30.5 383,-0.5 280,-0.5"/>
<text text-anchor="start" x="288" y="-18.5" font-family="Helvetica,sans-Serif" font-size="10.00">range_queries::Tree</text>
<text text-anchor="middle" x="331.5" y="-7.5" font-family="Helvetica,sans-Serif" font-size="10.00">::dfs_size</text>
</a>
</g>
</g>
<!-- Node6&#45;&gt;Node8 -->
<g id="edge7" class="edge">
<title>Node6&#45;&gt;Node8</title>
<path fill="none" stroke="midnightblue" d="M243.81,-30.63C252.28,-29.15 261.14,-27.61 269.82,-26.09"/>
<polygon fill="midnightblue" stroke="midnightblue" points="270.65,-29.5 279.9,-24.33 269.45,-22.6 270.65,-29.5"/>
</g>
</g>
</svg>
