<?xml version="1.0" encoding="UTF-8" standalone="no"?>
<!DOCTYPE svg PUBLIC "-//W3C//DTD SVG 1.1//EN"
 "http://www.w3.org/Graphics/SVG/1.1/DTD/svg11.dtd">
<!-- Generated by graphviz version 2.44.1 (20200629.0846)
 -->
<!-- Title: HLD&lt; X &gt; Pages: 1 -->
<svg width="144pt" height="84pt"
 viewBox="0.00 0.00 143.50 84.00" xmlns="http://www.w3.org/2000/svg" xmlns:xlink="http://www.w3.org/1999/xlink">
<g id="graph0" class="graph" transform="scale(1 1) rotate(0) translate(4 80)">
<title>HLD&lt; X &gt;</title>
<polygon fill="white" stroke="transparent" points="-4,4 -4,-80 139.5,-80 139.5,4 -4,4"/>
<!-- Node1 -->
<g id="node1" class="node">
<title>Node1</title>
<g id="a_node1"><a xlink:title=" ">
<polygon fill="#bfbfbf" stroke="black" points="37.5,-0.5 37.5,-19.5 99.5,-19.5 99.5,-0.5 37.5,-0.5"/>
<text text-anchor="middle" x="68.5" y="-7.5" font-family="Helvetica,sans-Serif" font-size="10.00">HLD&lt; X &gt;</text>
</a>
</g>
</g>
<!-- Node2 -->
<g id="node2" class="node">
<title>Node2</title>
<g id="a_node2"><a xlink:href="../../dd/df8/class_tree.html" target="_top" xlink:title=" ">
<polygon fill="white" stroke="black" points="0,-56.5 0,-75.5 61,-75.5 61,-56.5 0,-56.5"/>
<text text-anchor="middle" x="30.5" y="-63.5" font-family="Helvetica,sans-Serif" font-size="10.00">Tree&lt; X &gt;</text>
</a>
</g>
</g>
<!-- Node2&#45;&gt;Node1 -->
<g id="edge1" class="edge">
<title>Node2&#45;&gt;Node1</title>
<path fill="none" stroke="midnightblue" d="M42.56,-47.86C49.14,-38.5 57.01,-27.33 62.34,-19.75"/>
<polygon fill="midnightblue" stroke="midnightblue" points="39.67,-45.89 36.77,-56.08 45.39,-49.92 39.67,-45.89"/>
</g>
<!-- Node3 -->
<g id="node3" class="node">
<title>Node3</title>
<g id="a_node3"><a xlink:href="../../d5/db0/class_s_g.html" target="_top" xlink:title=" ">
<polygon fill="white" stroke="black" points="79.5,-56.5 79.5,-75.5 135.5,-75.5 135.5,-56.5 79.5,-56.5"/>
<text text-anchor="middle" x="107.5" y="-63.5" font-family="Helvetica,sans-Serif" font-size="10.00">SG&lt; X &gt;</text>
</a>
</g>
</g>
<!-- Node3&#45;&gt;Node1 -->
<g id="edge2" class="edge">
<title>Node3&#45;&gt;Node1</title>
<path fill="none" stroke="midnightblue" d="M95.12,-47.86C88.36,-38.5 80.29,-27.33 74.82,-19.75"/>
<polygon fill="midnightblue" stroke="midnightblue" points="92.37,-50.03 101.06,-56.08 98.04,-45.93 92.37,-50.03"/>
</g>
</g>
</svg>
