<?xml version="1.0" encoding="UTF-8" standalone="no"?>
<!DOCTYPE svg PUBLIC "-//W3C//DTD SVG 1.1//EN"
 "http://www.w3.org/Graphics/SVG/1.1/DTD/svg11.dtd">
<!-- Generated by graphviz version 2.44.1 (20200629.0846)
 -->
<!-- Title: range_queries::heavy_light_decomposition::Tree&lt; X &gt; Pages: 1 -->
<svg width="465pt" height="165pt"
 viewBox="0.00 0.00 465.00 164.50" xmlns="http://www.w3.org/2000/svg" xmlns:xlink="http://www.w3.org/1999/xlink">
<g id="graph0" class="graph" transform="scale(1 1) rotate(0) translate(4 160.5)">
<title>range_queries::heavy_light_decomposition::Tree&lt; X &gt;</title>
<polygon fill="white" stroke="transparent" points="-4,4 -4,-160.5 461,-160.5 461,4 -4,4"/>
<!-- Node1 -->
<g id="node1" class="node">
<title>Node1</title>
<g id="a_node1"><a xlink:title="A Basic Tree, which supports binary lifting.">
<polygon fill="#bfbfbf" stroke="black" points="347,-49.5 347,-90.5 457,-90.5 457,-49.5 347,-49.5"/>
<text text-anchor="start" x="355" y="-78.5" font-family="Helvetica,sans-Serif" font-size="10.00">range_queries::heavy</text>
<text text-anchor="start" x="355" y="-67.5" font-family="Helvetica,sans-Serif" font-size="10.00">_light_decomposition</text>
<text text-anchor="middle" x="402" y="-56.5" font-family="Helvetica,sans-Serif" font-size="10.00">::Tree&lt; X &gt;</text>
</a>
</g>
</g>
<!-- Node2 -->
<g id="node2" class="node">
<title>Node2</title>
<g id="a_node2"><a target="_blank" xlink:href="http://en.cppreference.com/w/cpp/container/vector.html" xlink:title=" ">
<polygon fill="white" stroke="black" points="156,-126 156,-156 275,-156 275,-126 156,-126"/>
<text text-anchor="start" x="164" y="-144" font-family="Helvetica,sans-Serif" font-size="10.00">std::vector&lt; std::vector</text>
<text text-anchor="middle" x="215.5" y="-133" font-family="Helvetica,sans-Serif" font-size="10.00">&lt; int &gt; &gt;</text>
</a>
</g>
</g>
<!-- Node2&#45;&gt;Node1 -->
<g id="edge1" class="edge">
<title>Node2&#45;&gt;Node1</title>
<path fill="none" stroke="#9a32cd" stroke-dasharray="5,2" d="M265.05,-122.32C290.42,-112.55 321.53,-100.58 347.58,-90.56"/>
<polygon fill="#9a32cd" stroke="#9a32cd" points="263.7,-119.08 255.63,-125.94 266.22,-125.62 263.7,-119.08"/>
<text text-anchor="middle" x="311" y="-112" font-family="Helvetica,sans-Serif" font-size="10.00"> t_par</text>
</g>
<!-- Node3 -->
<g id="node3" class="node">
<title>Node3</title>
<g id="a_node3"><a target="_blank" xlink:href="http://en.cppreference.com/w/cpp/container/vector.html" xlink:title=" ">
<polygon fill="white" stroke="black" points="163.5,-77 163.5,-107 267.5,-107 267.5,-77 163.5,-77"/>
<text text-anchor="start" x="171.5" y="-95" font-family="Helvetica,sans-Serif" font-size="10.00">std::vector&lt; std::list</text>
<text text-anchor="middle" x="215.5" y="-84" font-family="Helvetica,sans-Serif" font-size="10.00">&lt; int &gt; &gt;</text>
</a>
</g>
</g>
<!-- Node3&#45;&gt;Node1 -->
<g id="edge2" class="edge">
<title>Node3&#45;&gt;Node1</title>
<path fill="none" stroke="#9a32cd" stroke-dasharray="5,2" d="M277.94,-84.67C300.28,-82.01 325.34,-79.02 346.99,-76.44"/>
<polygon fill="#9a32cd" stroke="#9a32cd" points="277.41,-81.21 267.89,-85.87 278.24,-88.16 277.41,-81.21"/>
<text text-anchor="middle" x="311" y="-85" font-family="Helvetica,sans-Serif" font-size="10.00"> t_adj</text>
</g>
<!-- Node4 -->
<g id="node4" class="node">
<title>Node4</title>
<g id="a_node4"><a target="_blank" xlink:href="http://en.cppreference.com/w/cpp/container/list.html" xlink:title=" ">
<polygon fill="white" stroke="black" points="0,-82.5 0,-101.5 77,-101.5 77,-82.5 0,-82.5"/>
<text text-anchor="middle" x="38.5" y="-89.5" font-family="Helvetica,sans-Serif" font-size="10.00">std::list&lt; int &gt;</text>
</a>
</g>
</g>
<!-- Node4&#45;&gt;Node3 -->
<g id="edge3" class="edge">
<title>Node4&#45;&gt;Node3</title>
<path fill="none" stroke="#9a32cd" stroke-dasharray="5,2" d="M87.17,-92C110.8,-92 139.34,-92 163.41,-92"/>
<polygon fill="#9a32cd" stroke="#9a32cd" points="87.04,-88.5 77.04,-92 87.04,-95.5 87.04,-88.5"/>
<text text-anchor="middle" x="116.5" y="-95" font-family="Helvetica,sans-Serif" font-size="10.00"> elements</text>
</g>
<!-- Node5 -->
<g id="node5" class="node">
<title>Node5</title>
<g id="a_node5"><a target="_blank" xlink:href="http://en.cppreference.com/w/cpp/container/vector.html" xlink:title=" ">
<polygon fill="white" stroke="black" points="169.5,-38.5 169.5,-57.5 261.5,-57.5 261.5,-38.5 169.5,-38.5"/>
<text text-anchor="middle" x="215.5" y="-45.5" font-family="Helvetica,sans-Serif" font-size="10.00">std::vector&lt; int &gt;</text>
</a>
</g>
</g>
<!-- Node5&#45;&gt;Node1 -->
<g id="edge4" class="edge">
<title>Node5&#45;&gt;Node1</title>
<path fill="none" stroke="#9a32cd" stroke-dasharray="5,2" d="M271.77,-48.39C290.05,-49.07 310.46,-50.42 329,-53 334.85,-53.81 340.93,-54.88 346.95,-56.09"/>
<polygon fill="#9a32cd" stroke="#9a32cd" points="271.67,-44.89 261.57,-48.08 271.45,-51.89 271.67,-44.89"/>
<text text-anchor="middle" x="311" y="-67" font-family="Helvetica,sans-Serif" font-size="10.00"> t_depth</text>
<text text-anchor="middle" x="311" y="-56" font-family="Helvetica,sans-Serif" font-size="10.00">t_size</text>
</g>
<!-- Node6 -->
<g id="node6" class="node">
<title>Node6</title>
<g id="a_node6"><a target="_blank" xlink:href="http://en.cppreference.com/w/cpp/container/vector.html" xlink:title=" ">
<polygon fill="white" stroke="black" points="171.5,-0.5 171.5,-19.5 259.5,-19.5 259.5,-0.5 171.5,-0.5"/>
<text text-anchor="middle" x="215.5" y="-7.5" font-family="Helvetica,sans-Serif" font-size="10.00">std::vector&lt; X &gt;</text>
</a>
</g>
</g>
<!-- Node6&#45;&gt;Node1 -->
<g id="edge5" class="edge">
<title>Node6&#45;&gt;Node1</title>
<path fill="none" stroke="#9a32cd" stroke-dasharray="5,2" d="M269.66,-18.47C288.67,-22.25 310.07,-27.37 329,-34 340.87,-38.16 353.29,-43.84 364.41,-49.46"/>
<polygon fill="#9a32cd" stroke="#9a32cd" points="270.15,-15 259.67,-16.56 268.84,-21.88 270.15,-15"/>
<text text-anchor="middle" x="311" y="-37" font-family="Helvetica,sans-Serif" font-size="10.00"> t_val</text>
</g>
</g>
</svg>
