<?xml version="1.0" encoding="UTF-8" standalone="no"?>
<!DOCTYPE svg PUBLIC "-//W3C//DTD SVG 1.1//EN"
 "http://www.w3.org/Graphics/SVG/1.1/DTD/svg11.dtd">
<!-- Generated by graphviz version 2.44.1 (20200629.0846)
 -->
<!-- Title: HLD&lt; X &gt; Pages: 1 -->
<svg width="466pt" height="254pt"
 viewBox="0.00 0.00 466.00 254.00" xmlns="http://www.w3.org/2000/svg" xmlns:xlink="http://www.w3.org/1999/xlink">
<g id="graph0" class="graph" transform="scale(1 1) rotate(0) translate(4 250)">
<title>HLD&lt; X &gt;</title>
<polygon fill="white" stroke="transparent" points="-4,4 -4,-250 462,-250 462,4 -4,4"/>
<!-- Node1 -->
<g id="node1" class="node">
<title>Node1</title>
<g id="a_node1"><a xlink:title=" ">
<polygon fill="#bfbfbf" stroke="black" points="185,-0.5 185,-19.5 247,-19.5 247,-0.5 185,-0.5"/>
<text text-anchor="middle" x="216" y="-7.5" font-family="Helvetica,sans-Serif" font-size="10.00">HLD&lt; X &gt;</text>
</a>
</g>
</g>
<!-- Node2 -->
<g id="node2" class="node">
<title>Node2</title>
<g id="a_node2"><a xlink:href="../../dd/df8/class_tree.html" target="_top" xlink:title=" ">
<polygon fill="white" stroke="black" points="185.5,-64 185.5,-83 246.5,-83 246.5,-64 185.5,-64"/>
<text text-anchor="middle" x="216" y="-71" font-family="Helvetica,sans-Serif" font-size="10.00">Tree&lt; X &gt;</text>
</a>
</g>
</g>
<!-- Node2&#45;&gt;Node1 -->
<g id="edge1" class="edge">
<title>Node2&#45;&gt;Node1</title>
<path fill="none" stroke="midnightblue" d="M216,-53.82C216,-42.55 216,-28.72 216,-19.88"/>
<polygon fill="midnightblue" stroke="midnightblue" points="212.5,-53.95 216,-63.95 219.5,-53.95 212.5,-53.95"/>
</g>
<!-- Node3 -->
<g id="node3" class="node">
<title>Node3</title>
<g id="a_node3"><a target="_blank" xlink:href="http://en.cppreference.com/w/cpp/container/vector.html" xlink:title=" ">
<polygon fill="white" stroke="black" points="110.5,-148.5 110.5,-178.5 229.5,-178.5 229.5,-148.5 110.5,-148.5"/>
<text text-anchor="start" x="118.5" y="-166.5" font-family="Helvetica,sans-Serif" font-size="10.00">std::vector&lt; std::vector</text>
<text text-anchor="middle" x="170" y="-155.5" font-family="Helvetica,sans-Serif" font-size="10.00">&lt; int &gt; &gt;</text>
</a>
</g>
</g>
<!-- Node3&#45;&gt;Node2 -->
<g id="edge2" class="edge">
<title>Node3&#45;&gt;Node2</title>
<path fill="none" stroke="#9a32cd" stroke-dasharray="5,2" d="M182.1,-139.36C191.78,-120.84 204.81,-95.91 211.55,-83.02"/>
<polygon fill="#9a32cd" stroke="#9a32cd" points="178.92,-137.88 177.39,-148.36 185.13,-141.12 178.92,-137.88"/>
<text text-anchor="middle" x="211.5" y="-116.5" font-family="Helvetica,sans-Serif" font-size="10.00"> t_par</text>
</g>
<!-- Node4 -->
<g id="node4" class="node">
<title>Node4</title>
<g id="a_node4"><a target="_blank" xlink:href="http://en.cppreference.com/w/cpp/container/vector.html" xlink:title=" ">
<polygon fill="white" stroke="black" points="248,-148.5 248,-178.5 352,-178.5 352,-148.5 248,-148.5"/>
<text text-anchor="start" x="256" y="-166.5" font-family="Helvetica,sans-Serif" font-size="10.00">std::vector&lt; std::list</text>
<text text-anchor="middle" x="300" y="-155.5" font-family="Helvetica,sans-Serif" font-size="10.00">&lt; int &gt; &gt;</text>
</a>
</g>
</g>
<!-- Node4&#45;&gt;Node2 -->
<g id="edge3" class="edge">
<title>Node4&#45;&gt;Node2</title>
<path fill="none" stroke="#9a32cd" stroke-dasharray="5,2" d="M279.36,-140.87C261.55,-122.22 236.77,-96.26 224.13,-83.02"/>
<polygon fill="#9a32cd" stroke="#9a32cd" points="277.07,-143.54 286.5,-148.36 282.13,-138.71 277.07,-143.54"/>
<text text-anchor="middle" x="279.5" y="-116.5" font-family="Helvetica,sans-Serif" font-size="10.00"> t_adj</text>
</g>
<!-- Node5 -->
<g id="node5" class="node">
<title>Node5</title>
<g id="a_node5"><a target="_blank" xlink:href="http://en.cppreference.com/w/cpp/container/list.html" xlink:title=" ">
<polygon fill="white" stroke="black" points="261.5,-226.5 261.5,-245.5 338.5,-245.5 338.5,-226.5 261.5,-226.5"/>
<text text-anchor="middle" x="300" y="-233.5" font-family="Helvetica,sans-Serif" font-size="10.00">std::list&lt; int &gt;</text>
</a>
</g>
</g>
<!-- Node5&#45;&gt;Node4 -->
<g id="edge4" class="edge">
<title>Node5&#45;&gt;Node4</title>
<path fill="none" stroke="#9a32cd" stroke-dasharray="5,2" d="M300,-216.24C300,-204.41 300,-189.38 300,-178.58"/>
<polygon fill="#9a32cd" stroke="#9a32cd" points="296.5,-216.36 300,-226.36 303.5,-216.36 296.5,-216.36"/>
<text text-anchor="middle" x="321.5" y="-200" font-family="Helvetica,sans-Serif" font-size="10.00"> elements</text>
</g>
<!-- Node6 -->
<g id="node6" class="node">
<title>Node6</title>
<g id="a_node6"><a target="_blank" xlink:href="http://en.cppreference.com/w/cpp/container/vector.html" xlink:title=" ">
<polygon fill="white" stroke="black" points="0,-154 0,-173 92,-173 92,-154 0,-154"/>
<text text-anchor="middle" x="46" y="-161" font-family="Helvetica,sans-Serif" font-size="10.00">std::vector&lt; int &gt;</text>
</a>
</g>
</g>
<!-- Node6&#45;&gt;Node1 -->
<g id="edge9" class="edge">
<title>Node6&#45;&gt;Node1</title>
<path fill="none" stroke="#9a32cd" stroke-dasharray="5,2" d="M54.33,-144.78C65.84,-121.9 88.57,-82.06 118,-57 138.61,-39.45 167.04,-27.09 187.97,-19.63"/>
<polygon fill="#9a32cd" stroke="#9a32cd" points="51.08,-143.46 49.84,-153.98 57.37,-146.53 51.08,-143.46"/>
<text text-anchor="middle" x="147" y="-82" font-family="Helvetica,sans-Serif" font-size="10.00"> h_parent</text>
<text text-anchor="middle" x="147" y="-71" font-family="Helvetica,sans-Serif" font-size="10.00">h_heavychlid</text>
<text text-anchor="middle" x="147" y="-60" font-family="Helvetica,sans-Serif" font-size="10.00">h_label</text>
</g>
<!-- Node6&#45;&gt;Node2 -->
<g id="edge5" class="edge">
<title>Node6&#45;&gt;Node2</title>
<path fill="none" stroke="#9a32cd" stroke-dasharray="5,2" d="M70.83,-148.94C91.41,-137.77 121.48,-121.61 148,-108 164.98,-99.29 184.54,-89.7 198.31,-83.02"/>
<polygon fill="#9a32cd" stroke="#9a32cd" points="68.93,-145.99 61.82,-153.84 72.27,-152.14 68.93,-145.99"/>
<text text-anchor="middle" x="166" y="-122" font-family="Helvetica,sans-Serif" font-size="10.00"> t_depth</text>
<text text-anchor="middle" x="166" y="-111" font-family="Helvetica,sans-Serif" font-size="10.00">t_size</text>
</g>
<!-- Node7 -->
<g id="node7" class="node">
<title>Node7</title>
<g id="a_node7"><a target="_blank" xlink:href="http://en.cppreference.com/w/cpp/container/vector.html" xlink:title=" ">
<polygon fill="white" stroke="black" points="370,-154 370,-173 458,-173 458,-154 370,-154"/>
<text text-anchor="middle" x="414" y="-161" font-family="Helvetica,sans-Serif" font-size="10.00">std::vector&lt; X &gt;</text>
</a>
</g>
</g>
<!-- Node7&#45;&gt;Node2 -->
<g id="edge6" class="edge">
<title>Node7&#45;&gt;Node2</title>
<path fill="none" stroke="#9a32cd" stroke-dasharray="5,2" d="M385.19,-149.67C371.99,-143.75 356.17,-136.59 342,-130 321.45,-120.45 316.68,-117.27 296,-108 276.21,-99.13 253.37,-89.64 237.18,-83.03"/>
<polygon fill="#9a32cd" stroke="#9a32cd" points="384.14,-153.03 394.69,-153.92 387,-146.64 384.14,-153.03"/>
<text text-anchor="middle" x="354.5" y="-116.5" font-family="Helvetica,sans-Serif" font-size="10.00"> t_val</text>
</g>
<!-- Node8 -->
<g id="node8" class="node">
<title>Node8</title>
<g id="a_node8"><a xlink:href="../../d5/db0/class_s_g.html" target="_top" xlink:title=" ">
<polygon fill="white" stroke="black" points="318,-64 318,-83 374,-83 374,-64 318,-64"/>
<text text-anchor="middle" x="346" y="-71" font-family="Helvetica,sans-Serif" font-size="10.00">SG&lt; X &gt;</text>
</a>
</g>
</g>
<!-- Node7&#45;&gt;Node8 -->
<g id="edge8" class="edge">
<title>Node7&#45;&gt;Node8</title>
<path fill="none" stroke="#9a32cd" stroke-dasharray="5,2" d="M401.1,-145.81C386.71,-127.18 363.97,-97.76 352.74,-83.22"/>
<polygon fill="#9a32cd" stroke="#9a32cd" points="398.35,-147.97 407.23,-153.74 403.89,-143.69 398.35,-147.97"/>
<text text-anchor="middle" x="403.5" y="-116.5" font-family="Helvetica,sans-Serif" font-size="10.00"> s_tree</text>
</g>
<!-- Node8&#45;&gt;Node1 -->
<g id="edge7" class="edge">
<title>Node8&#45;&gt;Node1</title>
<path fill="none" stroke="midnightblue" d="M318.84,-59.65C293.49,-47.66 256.36,-30.09 234.34,-19.68"/>
<polygon fill="midnightblue" stroke="midnightblue" points="317.39,-62.84 327.92,-63.95 320.38,-56.51 317.39,-62.84"/>
</g>
</g>
</svg>
