<?xml version="1.0" encoding="UTF-8" standalone="no"?>
<!DOCTYPE svg PUBLIC "-//W3C//DTD SVG 1.1//EN"
 "http://www.w3.org/Graphics/SVG/1.1/DTD/svg11.dtd">
<!-- Generated by graphviz version 2.44.1 (20200629.0846)
 -->
<!-- Title: HLD::init Pages: 1 -->
<svg width="302pt" height="199pt"
 viewBox="0.00 0.00 302.00 199.00" xmlns="http://www.w3.org/2000/svg" xmlns:xlink="http://www.w3.org/1999/xlink">
<g id="graph0" class="graph" transform="scale(1 1) rotate(0) translate(4 195)">
<title>HLD::init</title>
<polygon fill="white" stroke="transparent" points="-4,4 -4,-195 298,-195 298,4 -4,4"/>
<!-- Node1 -->
<g id="node1" class="node">
<title>Node1</title>
<g id="a_node1"><a xlink:title=" ">
<polygon fill="#bfbfbf" stroke="black" points="0,-95.5 0,-114.5 56,-114.5 56,-95.5 0,-95.5"/>
<text text-anchor="middle" x="28" y="-102.5" font-family="Helvetica,sans-Serif" font-size="10.00">HLD::init</text>
</a>
</g>
</g>
<!-- Node2 -->
<g id="node2" class="node">
<title>Node2</title>
<g id="a_node2"><a xlink:href="../../d5/db0/class_s_g.html#a9c4aad4d089b5f701c41edd595b46f34" target="_top" xlink:title=" ">
<polygon fill="white" stroke="black" points="98.5,-171.5 98.5,-190.5 172.5,-190.5 172.5,-171.5 98.5,-171.5"/>
<text text-anchor="middle" x="135.5" y="-178.5" font-family="Helvetica,sans-Serif" font-size="10.00">SG::combine</text>
</a>
</g>
</g>
<!-- Node1&#45;&gt;Node2 -->
<g id="edge1" class="edge">
<title>Node1&#45;&gt;Node2</title>
<path fill="none" stroke="midnightblue" d="M38.03,-114.91C49.62,-127.17 70.75,-148.14 92,-162 94.62,-163.71 97.43,-165.34 100.29,-166.87"/>
<polygon fill="midnightblue" stroke="midnightblue" points="99.02,-170.14 109.54,-171.42 102.11,-163.86 99.02,-170.14"/>
</g>
<!-- Node3 -->
<g id="node3" class="node">
<title>Node3</title>
<g id="a_node3"><a xlink:href="../../df/d62/class_h_l_d.html#a9acac2437f096116b400f01bc5703a30" target="_top" xlink:title=" ">
<polygon fill="white" stroke="black" points="99.5,-133.5 99.5,-152.5 171.5,-152.5 171.5,-133.5 99.5,-133.5"/>
<text text-anchor="middle" x="135.5" y="-140.5" font-family="Helvetica,sans-Serif" font-size="10.00">HLD::dfs_hc</text>
</a>
</g>
</g>
<!-- Node1&#45;&gt;Node3 -->
<g id="edge2" class="edge">
<title>Node1&#45;&gt;Node3</title>
<path fill="none" stroke="midnightblue" d="M55.62,-114.59C68.49,-119.22 84.14,-124.86 98.09,-129.89"/>
<polygon fill="midnightblue" stroke="midnightblue" points="97.29,-133.32 107.89,-133.41 99.66,-126.73 97.29,-133.32"/>
</g>
<!-- Node4 -->
<g id="node4" class="node">
<title>Node4</title>
<g id="a_node4"><a xlink:href="../../df/d62/class_h_l_d.html#a8973e665b2b33269712ee51c0752feef" target="_top" xlink:title=" ">
<polygon fill="white" stroke="black" points="92,-95.5 92,-114.5 179,-114.5 179,-95.5 92,-95.5"/>
<text text-anchor="middle" x="135.5" y="-102.5" font-family="Helvetica,sans-Serif" font-size="10.00">HLD::dfs_labels</text>
</a>
</g>
</g>
<!-- Node1&#45;&gt;Node4 -->
<g id="edge3" class="edge">
<title>Node1&#45;&gt;Node4</title>
<path fill="none" stroke="midnightblue" d="M56.17,-105C63.98,-105 72.78,-105 81.58,-105"/>
<polygon fill="midnightblue" stroke="midnightblue" points="81.86,-108.5 91.86,-105 81.86,-101.5 81.86,-108.5"/>
</g>
<!-- Node5 -->
<g id="node5" class="node">
<title>Node5</title>
<g id="a_node5"><a xlink:href="../../df/d62/class_h_l_d.html#a9a0eedc6f593c6c069553738d1d1b625" target="_top" xlink:title=" ">
<polygon fill="white" stroke="black" points="98,-57.5 98,-76.5 173,-76.5 173,-57.5 98,-57.5"/>
<text text-anchor="middle" x="135.5" y="-64.5" font-family="Helvetica,sans-Serif" font-size="10.00">HLD::dfs_par</text>
</a>
</g>
</g>
<!-- Node1&#45;&gt;Node5 -->
<g id="edge4" class="edge">
<title>Node1&#45;&gt;Node5</title>
<path fill="none" stroke="midnightblue" d="M55.62,-95.41C68.49,-90.78 84.14,-85.14 98.09,-80.11"/>
<polygon fill="midnightblue" stroke="midnightblue" points="99.66,-83.27 107.89,-76.59 97.29,-76.68 99.66,-83.27"/>
</g>
<!-- Node6 -->
<g id="node6" class="node">
<title>Node6</title>
<g id="a_node6"><a xlink:href="../../dd/df8/class_tree.html#afddffe17c2606938868bf77b5dedd8ac" target="_top" xlink:title=" ">
<polygon fill="white" stroke="black" points="108,-19.5 108,-38.5 163,-38.5 163,-19.5 108,-19.5"/>
<text text-anchor="middle" x="135.5" y="-26.5" font-family="Helvetica,sans-Serif" font-size="10.00">Tree::init</text>
</a>
</g>
</g>
<!-- Node1&#45;&gt;Node6 -->
<g id="edge5" class="edge">
<title>Node1&#45;&gt;Node6</title>
<path fill="none" stroke="midnightblue" d="M38.03,-95.09C49.62,-82.83 70.75,-61.86 92,-48 94.62,-46.29 97.43,-44.66 100.29,-43.13"/>
<polygon fill="midnightblue" stroke="midnightblue" points="102.11,-46.14 109.54,-38.58 99.02,-39.86 102.11,-46.14"/>
</g>
<!-- Node7 -->
<g id="node7" class="node">
<title>Node7</title>
<g id="a_node7"><a xlink:href="../../dd/df8/class_tree.html#ae5ef22530602968ab4ea5bafb83dcced" target="_top" xlink:title=" ">
<polygon fill="white" stroke="black" points="217.5,-38.5 217.5,-57.5 291.5,-57.5 291.5,-38.5 217.5,-38.5"/>
<text text-anchor="middle" x="254.5" y="-45.5" font-family="Helvetica,sans-Serif" font-size="10.00">Tree::dfs_lca</text>
</a>
</g>
</g>
<!-- Node6&#45;&gt;Node7 -->
<g id="edge6" class="edge">
<title>Node6&#45;&gt;Node7</title>
<path fill="none" stroke="midnightblue" d="M163.05,-33.31C176.09,-35.43 192.18,-38.04 207.16,-40.47"/>
<polygon fill="midnightblue" stroke="midnightblue" points="206.87,-43.97 217.3,-42.12 207.99,-37.06 206.87,-43.97"/>
</g>
<!-- Node8 -->
<g id="node8" class="node">
<title>Node8</title>
<g id="a_node8"><a xlink:href="../../dd/df8/class_tree.html#a6c95cc83a70a8eb7fd7a9af08d27a5dd" target="_top" xlink:title=" ">
<polygon fill="white" stroke="black" points="215,-0.5 215,-19.5 294,-19.5 294,-0.5 215,-0.5"/>
<text text-anchor="middle" x="254.5" y="-7.5" font-family="Helvetica,sans-Serif" font-size="10.00">Tree::dfs_size</text>
</a>
</g>
</g>
<!-- Node6&#45;&gt;Node8 -->
<g id="edge7" class="edge">
<title>Node6&#45;&gt;Node8</title>
<path fill="none" stroke="midnightblue" d="M163.05,-24.69C175.31,-22.7 190.27,-20.27 204.47,-17.96"/>
<polygon fill="midnightblue" stroke="midnightblue" points="205.31,-21.37 214.62,-16.31 204.19,-14.46 205.31,-21.37"/>
</g>
</g>
</svg>
