<?xml version="1.0" encoding="UTF-8" standalone="no"?>
<!DOCTYPE svg PUBLIC "-//W3C//DTD SVG 1.1//EN"
 "http://www.w3.org/Graphics/SVG/1.1/DTD/svg11.dtd">
<!-- Generated by graphviz version 2.44.1 (20200629.0846)
 -->
<!-- Title: range_queries::HLD&lt; X &gt; Pages: 1 -->
<svg width="276pt" height="84pt"
 viewBox="0.00 0.00 276.00 84.00" xmlns="http://www.w3.org/2000/svg" xmlns:xlink="http://www.w3.org/1999/xlink">
<g id="graph0" class="graph" transform="scale(1 1) rotate(0) translate(4 80)">
<title>range_queries::HLD&lt; X &gt;</title>
<polygon fill="white" stroke="transparent" points="-4,4 -4,-80 272,-80 272,4 -4,4"/>
<!-- Node1 -->
<g id="node1" class="node">
<title>Node1</title>
<g id="a_node1"><a xlink:title="The Heavy&#45;Light Decomposition class.">
<polygon fill="#bfbfbf" stroke="black" points="71,-0.5 71,-19.5 199,-19.5 199,-0.5 71,-0.5"/>
<text text-anchor="middle" x="135" y="-7.5" font-family="Helvetica,sans-Serif" font-size="10.00">range_queries::HLD&lt; X &gt;</text>
</a>
</g>
</g>
<!-- Node2 -->
<g id="node2" class="node">
<title>Node2</title>
<g id="a_node2"><a xlink:href="../../d4/d96/classrange__queries_1_1_tree.html" target="_top" xlink:title="A Basic Tree, which supports binary lifting.">
<polygon fill="white" stroke="black" points="0,-56.5 0,-75.5 128,-75.5 128,-56.5 0,-56.5"/>
<text text-anchor="middle" x="64" y="-63.5" font-family="Helvetica,sans-Serif" font-size="10.00">range_queries::Tree&lt; X &gt;</text>
</a>
</g>
</g>
<!-- Node2&#45;&gt;Node1 -->
<g id="edge1" class="edge">
<title>Node2&#45;&gt;Node1</title>
<path fill="none" stroke="midnightblue" d="M83.59,-50.1C96.37,-40.38 112.61,-28.03 123.39,-19.83"/>
<polygon fill="midnightblue" stroke="midnightblue" points="81.25,-47.48 75.41,-56.32 85.49,-53.06 81.25,-47.48"/>
</g>
<!-- Node3 -->
<g id="node3" class="node">
<title>Node3</title>
<g id="a_node3"><a xlink:href="../../d4/d77/classrange__queries_1_1_s_g.html" target="_top" xlink:title="Segment Tree, to store heavy chains.">
<polygon fill="white" stroke="black" points="146,-56.5 146,-75.5 268,-75.5 268,-56.5 146,-56.5"/>
<text text-anchor="middle" x="207" y="-63.5" font-family="Helvetica,sans-Serif" font-size="10.00">range_queries::SG&lt; X &gt;</text>
</a>
</g>
</g>
<!-- Node3&#45;&gt;Node1 -->
<g id="edge2" class="edge">
<title>Node3&#45;&gt;Node1</title>
<path fill="none" stroke="midnightblue" d="M187.13,-50.1C174.18,-40.38 157.7,-28.03 146.78,-19.83"/>
<polygon fill="midnightblue" stroke="midnightblue" points="185.33,-53.12 195.43,-56.32 189.53,-47.52 185.33,-53.12"/>
</g>
</g>
</svg>
