<?xml version="1.0" encoding="UTF-8" standalone="no"?>
<!DOCTYPE svg PUBLIC "-//W3C//DTD SVG 1.1//EN"
 "http://www.w3.org/Graphics/SVG/1.1/DTD/svg11.dtd">
<!-- Generated by graphviz version 2.44.1 (20200629.0846)
 -->
<!-- Title: main Pages: 1 -->
<!--zoomable 546 -->
<svg id="main" version="1.1" xmlns="http://www.w3.org/2000/svg" xmlns:xlink="http://www.w3.org/1999/xlink" xml:space="preserve" onload="init(evt)">
<style type="text/css"><![CDATA[
.edge:hover path { stroke: red; }
.edge:hover polygon { stroke: red; fill: red; }
]]></style>
<script type="text/javascript"><![CDATA[
var edges = document.getElementsByTagName('g');
if (edges && edges.length) {
  for (var i=0;i<edges.length;i++) {
    if (edges[i].id.substr(0,4)=='edge') {
      edges[i].setAttribute('class','edge');
    }
  }
}
]]></script>
        <defs>
                <circle id="rim" cx="0" cy="0" r="7"/>
                <circle id="rim2" cx="0" cy="0" r="3.5"/>
                <g id="zoomPlus">
                        <use xlink:href="#rim" fill="#404040">
                                <set attributeName="fill" to="#808080" begin="zoomplus.mouseover" end="zoomplus.mouseout"/>
                        </use>
                        <path d="M-4,0h8M0,-4v8" fill="none" stroke="white" stroke-width="1.5" pointer-events="none"/>
                </g>
                <g id="zoomMin">
                        <use xlink:href="#rim" fill="#404040">
                                <set attributeName="fill" to="#808080" begin="zoomminus.mouseover" end="zoomminus.mouseout"/>
                        </use>
                        <path d="M-4,0h8" fill="none" stroke="white" stroke-width="1.5" pointer-events="none"/>
                </g>
                <g id="dirArrow">
                        <path fill="none" stroke="white" stroke-width="1.5" d="M0,-3.0v7 M-2.5,-0.5L0,-3.0L2.5,-0.5"/>
                </g>
               <g id="resetDef">
                       <use xlink:href="#rim2" fill="#404040">
                               <set attributeName="fill" to="#808080" begin="reset.mouseover" end="reset.mouseout"/>
                       </use>
               </g>
        </defs>

<script type="text/javascript">
var viewWidth = 570;
var viewHeight = 546;
var sectionId = 'dynsection-1';
</script>
<script xlink:href="../../svgpan.js"/>
<svg id="graph" class="graph">
<g id="viewport">
<title>main</title>
<polygon fill="white" stroke="transparent" points="-4,4 -4,-542 566,-542 566,4 -4,4"/>
<!-- Node1 -->
<g id="node1" class="node">
<title>Node1</title>
<g id="a_node1"><a xlink:title=" ">
<polygon fill="#bfbfbf" stroke="black" points="0,-229.5 0,-248.5 38,-248.5 38,-229.5 0,-229.5"/>
<text text-anchor="middle" x="19" y="-236.5" font-family="Helvetica,sans-Serif" font-size="10.00">main</text>
</a>
</g>
</g>
<!-- Node2 -->
<g id="node2" class="node">
<title>Node2</title>
<g id="a_node2"><a xlink:href="../../d2/de9/heavy__light__decomposition_8cpp.html#a34b8683a2b429de5cce57e6d733ec817" target="_top" xlink:title=" ">
<polygon fill="white" stroke="black" points="74,-248.5 74,-267.5 118,-267.5 118,-248.5 74,-248.5"/>
<text text-anchor="middle" x="96" y="-255.5" font-family="Helvetica,sans-Serif" font-size="10.00">test_1</text>
</a>
</g>
</g>
<!-- Node1&#45;&gt;Node2 -->
<g id="edge1" class="edge">
<title>Node1&#45;&gt;Node2</title>
<path fill="none" stroke="midnightblue" d="M38.16,-243.6C45.88,-245.56 55.12,-247.9 63.88,-250.12"/>
<polygon fill="midnightblue" stroke="midnightblue" points="63.27,-253.57 73.82,-252.63 64.99,-246.79 63.27,-253.57"/>
</g>
<!-- Node22 -->
<g id="node22" class="node">
<title>Node22</title>
<g id="a_node22"><a xlink:href="../../d2/de9/heavy__light__decomposition_8cpp.html#a458410412185a5f09199deaff7157a8d" target="_top" xlink:title=" ">
<polygon fill="white" stroke="black" points="74,-210.5 74,-229.5 118,-229.5 118,-210.5 74,-210.5"/>
<text text-anchor="middle" x="96" y="-217.5" font-family="Helvetica,sans-Serif" font-size="10.00">test_2</text>
</a>
</g>
</g>
<!-- Node1&#45;&gt;Node22 -->
<g id="edge21" class="edge">
<title>Node1&#45;&gt;Node22</title>
<path fill="none" stroke="midnightblue" d="M38.16,-234.4C45.88,-232.44 55.12,-230.1 63.88,-227.88"/>
<polygon fill="midnightblue" stroke="midnightblue" points="64.99,-231.21 73.82,-225.37 63.27,-224.43 64.99,-231.21"/>
</g>
<!-- Node3 -->
<g id="node3" class="node">
<title>Node3</title>
<g id="a_node3"><a xlink:href="../../d1/d51/classrange__queries_1_1heavy__light__decomposition_1_1_tree.html#a79ab4601c4a95c0902ac04e779e5f54d" target="_top" xlink:title="Adds an undirected edge from node u to node v in the tree.">
<polygon fill="white" stroke="black" points="154,-346.5 154,-387.5 264,-387.5 264,-346.5 154,-346.5"/>
<text text-anchor="start" x="162" y="-375.5" font-family="Helvetica,sans-Serif" font-size="10.00">range_queries::heavy</text>
<text text-anchor="start" x="162" y="-364.5" font-family="Helvetica,sans-Serif" font-size="10.00">_light_decomposition</text>
<text text-anchor="middle" x="209" y="-353.5" font-family="Helvetica,sans-Serif" font-size="10.00">::Tree::add_edge</text>
</a>
</g>
</g>
<!-- Node2&#45;&gt;Node3 -->
<g id="edge2" class="edge">
<title>Node2&#45;&gt;Node3</title>
<path fill="none" stroke="midnightblue" d="M102.04,-267.55C110.84,-283.52 130.36,-315.99 154,-337 155.3,-338.15 156.64,-339.28 158.03,-340.37"/>
<polygon fill="midnightblue" stroke="midnightblue" points="156.17,-343.35 166.33,-346.36 160.26,-337.67 156.17,-343.35"/>
</g>
<!-- Node5 -->
<g id="node5" class="node">
<title>Node5</title>
<g id="a_node5"><a target="_blank" xlink:href="http://en.cppreference.com/w/cpp/io/manip/endl.html#" xlink:title=" ">
<polygon fill="white" stroke="black" points="182,-308.5 182,-327.5 236,-327.5 236,-308.5 182,-308.5"/>
<text text-anchor="middle" x="209" y="-315.5" font-family="Helvetica,sans-Serif" font-size="10.00">std::endl</text>
</a>
</g>
</g>
<!-- Node2&#45;&gt;Node5 -->
<g id="edge4" class="edge">
<title>Node2&#45;&gt;Node5</title>
<path fill="none" stroke="midnightblue" d="M108.16,-267.51C119.21,-276.56 136.92,-290.09 154,-299 159.72,-301.99 166.02,-304.68 172.23,-307.04"/>
<polygon fill="midnightblue" stroke="midnightblue" points="171.23,-310.4 181.82,-310.46 173.58,-303.81 171.23,-310.4"/>
</g>
<!-- Node6 -->
<g id="node6" class="node">
<title>Node6</title>
<g id="a_node6"><a xlink:href="../../d2/d8a/classrange__queries_1_1heavy__light__decomposition_1_1_h_l_d.html#ae9e979edd69678b85665c01e2ee97828" target="_top" xlink:title="This function must be called after the tree adjacency list and node values are populated The function...">
<polygon fill="white" stroke="black" points="154,-248.5 154,-289.5 264,-289.5 264,-248.5 154,-248.5"/>
<text text-anchor="start" x="162" y="-277.5" font-family="Helvetica,sans-Serif" font-size="10.00">range_queries::heavy</text>
<text text-anchor="start" x="162" y="-266.5" font-family="Helvetica,sans-Serif" font-size="10.00">_light_decomposition</text>
<text text-anchor="middle" x="209" y="-255.5" font-family="Helvetica,sans-Serif" font-size="10.00">::HLD::init</text>
</a>
</g>
</g>
<!-- Node2&#45;&gt;Node6 -->
<g id="edge5" class="edge">
<title>Node2&#45;&gt;Node6</title>
<path fill="none" stroke="midnightblue" d="M118.14,-260.09C125.62,-260.84 134.48,-261.71 143.67,-262.62"/>
<polygon fill="midnightblue" stroke="midnightblue" points="143.42,-266.12 153.72,-263.62 144.11,-259.15 143.42,-266.12"/>
</g>
<!-- Node14 -->
<g id="node14" class="node">
<title>Node14</title>
<g id="a_node14"><a xlink:href="../../d2/d8a/classrange__queries_1_1heavy__light__decomposition_1_1_h_l_d.html#a4dfbf5d9df825eeb63b294c6849bdcab" target="_top" xlink:title="This function returns the sum of node values in the simple path from from node_1 to node_2.">
<polygon fill="white" stroke="black" points="154,-188.5 154,-229.5 264,-229.5 264,-188.5 154,-188.5"/>
<text text-anchor="start" x="162" y="-217.5" font-family="Helvetica,sans-Serif" font-size="10.00">range_queries::heavy</text>
<text text-anchor="start" x="162" y="-206.5" font-family="Helvetica,sans-Serif" font-size="10.00">_light_decomposition</text>
<text text-anchor="middle" x="209" y="-195.5" font-family="Helvetica,sans-Serif" font-size="10.00">::HLD::query</text>
</a>
</g>
</g>
<!-- Node2&#45;&gt;Node14 -->
<g id="edge13" class="edge">
<title>Node2&#45;&gt;Node14</title>
<path fill="none" stroke="midnightblue" d="M118.14,-248.67C127.86,-244.38 139.91,-239.06 151.98,-233.73"/>
<polygon fill="midnightblue" stroke="midnightblue" points="153.45,-236.9 161.19,-229.66 150.63,-230.5 153.45,-236.9"/>
</g>
<!-- Node18 -->
<g id="node18" class="node">
<title>Node18</title>
<g id="a_node18"><a xlink:href="../../d1/d51/classrange__queries_1_1heavy__light__decomposition_1_1_tree.html#a12f610db0786971cb7ac7edad6cfd6d1" target="_top" xlink:title="Set the values for all the nodes.">
<polygon fill="white" stroke="black" points="154,-128.5 154,-169.5 264,-169.5 264,-128.5 154,-128.5"/>
<text text-anchor="start" x="162" y="-157.5" font-family="Helvetica,sans-Serif" font-size="10.00">range_queries::heavy</text>
<text text-anchor="start" x="162" y="-146.5" font-family="Helvetica,sans-Serif" font-size="10.00">_light_decomposition</text>
<text text-anchor="middle" x="209" y="-135.5" font-family="Helvetica,sans-Serif" font-size="10.00">::Tree::set_node_val</text>
</a>
</g>
</g>
<!-- Node2&#45;&gt;Node18 -->
<g id="edge17" class="edge">
<title>Node2&#45;&gt;Node18</title>
<path fill="none" stroke="midnightblue" d="M109.15,-248.12C112.22,-245.33 115.38,-242.19 118,-239 137.74,-214.97 131.65,-200.62 154,-179 155.11,-177.93 156.26,-176.88 157.45,-175.86"/>
<polygon fill="midnightblue" stroke="midnightblue" points="159.94,-178.37 165.76,-169.52 155.69,-172.8 159.94,-178.37"/>
</g>
<!-- Node20 -->
<g id="node20" class="node">
<title>Node20</title>
<g id="a_node20"><a xlink:href="../../d2/d8a/classrange__queries_1_1heavy__light__decomposition_1_1_h_l_d.html#a9f1cb54ed09fde931bf3220d75ee4c57" target="_top" xlink:title="This function updates the value at node with val.">
<polygon fill="white" stroke="black" points="154,-68.5 154,-109.5 264,-109.5 264,-68.5 154,-68.5"/>
<text text-anchor="start" x="162" y="-97.5" font-family="Helvetica,sans-Serif" font-size="10.00">range_queries::heavy</text>
<text text-anchor="start" x="162" y="-86.5" font-family="Helvetica,sans-Serif" font-size="10.00">_light_decomposition</text>
<text text-anchor="middle" x="209" y="-75.5" font-family="Helvetica,sans-Serif" font-size="10.00">::HLD::update</text>
</a>
</g>
</g>
<!-- Node2&#45;&gt;Node20 -->
<g id="edge19" class="edge">
<title>Node2&#45;&gt;Node20</title>
<path fill="none" stroke="midnightblue" d="M110.15,-248.12C113.06,-245.43 115.9,-242.33 118,-239 147.74,-191.92 119.09,-162.38 154,-119 154.69,-118.14 155.41,-117.31 156.16,-116.49"/>
<polygon fill="midnightblue" stroke="midnightblue" points="158.56,-119.04 163.54,-109.69 153.82,-113.89 158.56,-119.04"/>
</g>
<!-- Node4 -->
<g id="node4" class="node">
<title>Node4</title>
<g id="a_node4"><a target="_blank" xlink:href="http://en.cppreference.com/w/cpp/container/vector/push_back.html#" xlink:title=" ">
<polygon fill="white" stroke="black" points="300,-518.5 300,-537.5 416,-537.5 416,-518.5 300,-518.5"/>
<text text-anchor="middle" x="358" y="-525.5" font-family="Helvetica,sans-Serif" font-size="10.00">std::vector::push_back</text>
</a>
</g>
</g>
<!-- Node3&#45;&gt;Node4 -->
<g id="edge3" class="edge">
<title>Node3&#45;&gt;Node4</title>
<path fill="none" stroke="midnightblue" d="M217.72,-387.53C230.32,-418.31 258.16,-476.27 300,-509 302.31,-510.81 304.8,-512.45 307.41,-513.93"/>
<polygon fill="midnightblue" stroke="midnightblue" points="306.07,-517.18 316.59,-518.42 309.15,-510.89 306.07,-517.18"/>
</g>
<!-- Node7 -->
<g id="node7" class="node">
<title>Node7</title>
<g id="a_node7"><a xlink:href="../../d9/d35/classrange__queries_1_1heavy__light__decomposition_1_1_s_g.html#a41c733f5f5e262b308f7cb95c88c1e74" target="_top" xlink:title="Function that specifies the type of operation involved when segments are combined.">
<polygon fill="white" stroke="black" points="303,-458.5 303,-499.5 413,-499.5 413,-458.5 303,-458.5"/>
<text text-anchor="start" x="311" y="-487.5" font-family="Helvetica,sans-Serif" font-size="10.00">range_queries::heavy</text>
<text text-anchor="start" x="311" y="-476.5" font-family="Helvetica,sans-Serif" font-size="10.00">_light_decomposition</text>
<text text-anchor="middle" x="358" y="-465.5" font-family="Helvetica,sans-Serif" font-size="10.00">::SG::combine</text>
</a>
</g>
</g>
<!-- Node6&#45;&gt;Node7 -->
<g id="edge6" class="edge">
<title>Node6&#45;&gt;Node7</title>
<path fill="none" stroke="midnightblue" d="M254.66,-289.53C258.15,-292.35 261.34,-295.5 264,-299 305.47,-353.6 257.91,-394.88 300,-449 300.59,-449.75 301.2,-450.49 301.83,-451.21"/>
<polygon fill="midnightblue" stroke="midnightblue" points="299.66,-453.98 309.34,-458.3 304.47,-448.89 299.66,-453.98"/>
</g>
<!-- Node8 -->
<g id="node8" class="node">
<title>Node8</title>
<g id="a_node8"><a xlink:href="../../d2/d8a/classrange__queries_1_1heavy__light__decomposition_1_1_h_l_d.html#af64848d6630c39d0f09ce2359cc7c4f8" target="_top" xlink:title="Utility function to assign heavy child to each node (&#45;1 for a leaf node)">
<polygon fill="white" stroke="black" points="303,-398.5 303,-439.5 413,-439.5 413,-398.5 303,-398.5"/>
<text text-anchor="start" x="311" y="-427.5" font-family="Helvetica,sans-Serif" font-size="10.00">range_queries::heavy</text>
<text text-anchor="start" x="311" y="-416.5" font-family="Helvetica,sans-Serif" font-size="10.00">_light_decomposition</text>
<text text-anchor="middle" x="358" y="-405.5" font-family="Helvetica,sans-Serif" font-size="10.00">::HLD::dfs_hc</text>
</a>
</g>
</g>
<!-- Node6&#45;&gt;Node8 -->
<g id="edge7" class="edge">
<title>Node6&#45;&gt;Node8</title>
<path fill="none" stroke="midnightblue" d="M253.61,-289.56C257.4,-292.39 260.95,-295.54 264,-299 292.48,-331.33 271.16,-357 300,-389 300.88,-389.98 301.81,-390.94 302.77,-391.86"/>
<polygon fill="midnightblue" stroke="midnightblue" points="300.77,-394.76 310.69,-398.47 305.25,-389.38 300.77,-394.76"/>
</g>
<!-- Node9 -->
<g id="node9" class="node">
<title>Node9</title>
<g id="a_node9"><a xlink:href="../../d2/d8a/classrange__queries_1_1heavy__light__decomposition_1_1_h_l_d.html#a0579062b384e54b611b80c6337c7f2c8" target="_top" xlink:title="Utility function to lable the nodes so that heavy chains have a contigous lable.">
<polygon fill="white" stroke="black" points="303,-338.5 303,-379.5 413,-379.5 413,-338.5 303,-338.5"/>
<text text-anchor="start" x="311" y="-367.5" font-family="Helvetica,sans-Serif" font-size="10.00">range_queries::heavy</text>
<text text-anchor="start" x="311" y="-356.5" font-family="Helvetica,sans-Serif" font-size="10.00">_light_decomposition</text>
<text text-anchor="middle" x="358" y="-345.5" font-family="Helvetica,sans-Serif" font-size="10.00">::HLD::dfs_labels</text>
</a>
</g>
</g>
<!-- Node6&#45;&gt;Node9 -->
<g id="edge8" class="edge">
<title>Node6&#45;&gt;Node9</title>
<path fill="none" stroke="midnightblue" d="M249.17,-289.61C254.25,-292.62 259.31,-295.79 264,-299 281.18,-310.78 282.69,-317.42 300,-329 302.11,-330.41 304.3,-331.81 306.54,-333.19"/>
<polygon fill="midnightblue" stroke="midnightblue" points="304.92,-336.3 315.31,-338.37 308.48,-330.27 304.92,-336.3"/>
</g>
<!-- Node10 -->
<g id="node10" class="node">
<title>Node10</title>
<g id="a_node10"><a xlink:href="../../d2/d8a/classrange__queries_1_1heavy__light__decomposition_1_1_h_l_d.html#a2dfbda148aad0bfaba2ebfda9ebc915a" target="_top" xlink:title="Utility function to assign highest parent that can be reached though heavy chains.">
<polygon fill="white" stroke="black" points="303,-278.5 303,-319.5 413,-319.5 413,-278.5 303,-278.5"/>
<text text-anchor="start" x="311" y="-307.5" font-family="Helvetica,sans-Serif" font-size="10.00">range_queries::heavy</text>
<text text-anchor="start" x="311" y="-296.5" font-family="Helvetica,sans-Serif" font-size="10.00">_light_decomposition</text>
<text text-anchor="middle" x="358" y="-285.5" font-family="Helvetica,sans-Serif" font-size="10.00">::HLD::dfs_par</text>
</a>
</g>
</g>
<!-- Node6&#45;&gt;Node10 -->
<g id="edge9" class="edge">
<title>Node6&#45;&gt;Node10</title>
<path fill="none" stroke="midnightblue" d="M264.32,-280.09C273.67,-281.99 283.46,-283.99 293.03,-285.95"/>
<polygon fill="midnightblue" stroke="midnightblue" points="292.41,-289.39 302.9,-287.96 293.81,-282.53 292.41,-289.39"/>
</g>
<!-- Node11 -->
<g id="node11" class="node">
<title>Node11</title>
<g id="a_node11"><a xlink:href="../../d1/d51/classrange__queries_1_1heavy__light__decomposition_1_1_tree.html#ad22d760a5a33545a70e7ea5e1786c8dc" target="_top" xlink:title="This function must be called after the tree adjacency list and node values are populated The function...">
<polygon fill="white" stroke="black" points="303,-218.5 303,-259.5 413,-259.5 413,-218.5 303,-218.5"/>
<text text-anchor="start" x="311" y="-247.5" font-family="Helvetica,sans-Serif" font-size="10.00">range_queries::heavy</text>
<text text-anchor="start" x="311" y="-236.5" font-family="Helvetica,sans-Serif" font-size="10.00">_light_decomposition</text>
<text text-anchor="middle" x="358" y="-225.5" font-family="Helvetica,sans-Serif" font-size="10.00">::Tree::init</text>
</a>
</g>
</g>
<!-- Node6&#45;&gt;Node11 -->
<g id="edge10" class="edge">
<title>Node6&#45;&gt;Node11</title>
<path fill="none" stroke="midnightblue" d="M264.32,-257.91C273.67,-256.01 283.46,-254.01 293.03,-252.05"/>
<polygon fill="midnightblue" stroke="midnightblue" points="293.81,-255.47 302.9,-250.04 292.41,-248.61 293.81,-255.47"/>
</g>
<!-- Node12 -->
<g id="node12" class="node">
<title>Node12</title>
<g id="a_node12"><a xlink:href="../../d1/d51/classrange__queries_1_1heavy__light__decomposition_1_1_tree.html#ae8de7aefcb6635d3dacdd174cd4890c4" target="_top" xlink:title="Utility function to populate the t_par vector.">
<polygon fill="white" stroke="black" points="452,-188.5 452,-229.5 562,-229.5 562,-188.5 452,-188.5"/>
<text text-anchor="start" x="460" y="-217.5" font-family="Helvetica,sans-Serif" font-size="10.00">range_queries::heavy</text>
<text text-anchor="start" x="460" y="-206.5" font-family="Helvetica,sans-Serif" font-size="10.00">_light_decomposition</text>
<text text-anchor="middle" x="507" y="-195.5" font-family="Helvetica,sans-Serif" font-size="10.00">::Tree::dfs_lca</text>
</a>
</g>
</g>
<!-- Node11&#45;&gt;Node12 -->
<g id="edge11" class="edge">
<title>Node11&#45;&gt;Node12</title>
<path fill="none" stroke="midnightblue" d="M413.32,-227.91C422.67,-226.01 432.46,-224.01 442.03,-222.05"/>
<polygon fill="midnightblue" stroke="midnightblue" points="442.81,-225.47 451.9,-220.04 441.41,-218.61 442.81,-225.47"/>
</g>
<!-- Node13 -->
<g id="node13" class="node">
<title>Node13</title>
<g id="a_node13"><a xlink:href="../../d1/d51/classrange__queries_1_1heavy__light__decomposition_1_1_tree.html#aa339c31ec74cd86a4842a8b09653d460" target="_top" xlink:title="Utility function to compute sub&#45;tree sizes.">
<polygon fill="white" stroke="black" points="452,-248.5 452,-289.5 562,-289.5 562,-248.5 452,-248.5"/>
<text text-anchor="start" x="460" y="-277.5" font-family="Helvetica,sans-Serif" font-size="10.00">range_queries::heavy</text>
<text text-anchor="start" x="460" y="-266.5" font-family="Helvetica,sans-Serif" font-size="10.00">_light_decomposition</text>
<text text-anchor="middle" x="507" y="-255.5" font-family="Helvetica,sans-Serif" font-size="10.00">::Tree::dfs_size</text>
</a>
</g>
</g>
<!-- Node11&#45;&gt;Node13 -->
<g id="edge12" class="edge">
<title>Node11&#45;&gt;Node13</title>
<path fill="none" stroke="midnightblue" d="M413.32,-250.09C422.67,-251.99 432.46,-253.99 442.03,-255.95"/>
<polygon fill="midnightblue" stroke="midnightblue" points="441.41,-259.39 451.9,-257.96 442.81,-252.53 441.41,-259.39"/>
</g>
<!-- Node15 -->
<g id="node15" class="node">
<title>Node15</title>
<g id="a_node15"><a xlink:href="../../d2/d8a/classrange__queries_1_1heavy__light__decomposition_1_1_h_l_d.html#a7d5b40c076347a6aabfb37a0590f2f24" target="_top" xlink:title="Utility function to break down a path query into two chain queries.">
<polygon fill="white" stroke="black" points="303,-158.5 303,-199.5 413,-199.5 413,-158.5 303,-158.5"/>
<text text-anchor="start" x="311" y="-187.5" font-family="Helvetica,sans-Serif" font-size="10.00">range_queries::heavy</text>
<text text-anchor="start" x="311" y="-176.5" font-family="Helvetica,sans-Serif" font-size="10.00">_light_decomposition</text>
<text text-anchor="middle" x="358" y="-165.5" font-family="Helvetica,sans-Serif" font-size="10.00">::HLD::chain_query</text>
</a>
</g>
</g>
<!-- Node14&#45;&gt;Node15 -->
<g id="edge14" class="edge">
<title>Node14&#45;&gt;Node15</title>
<path fill="none" stroke="midnightblue" d="M264.32,-197.91C273.67,-196.01 283.46,-194.01 293.03,-192.05"/>
<polygon fill="midnightblue" stroke="midnightblue" points="293.81,-195.47 302.9,-190.04 292.41,-188.61 293.81,-195.47"/>
</g>
<!-- Node16 -->
<g id="node16" class="node">
<title>Node16</title>
<g id="a_node16"><a xlink:href="../../d1/d51/classrange__queries_1_1heavy__light__decomposition_1_1_tree.html#ae2b407e64aaf9878fbee7ee6efe9c7d4" target="_top" xlink:title="The function returns the least common ancestor of two nodes.">
<polygon fill="white" stroke="black" points="303,-98.5 303,-139.5 413,-139.5 413,-98.5 303,-98.5"/>
<text text-anchor="start" x="311" y="-127.5" font-family="Helvetica,sans-Serif" font-size="10.00">range_queries::heavy</text>
<text text-anchor="start" x="311" y="-116.5" font-family="Helvetica,sans-Serif" font-size="10.00">_light_decomposition</text>
<text text-anchor="middle" x="358" y="-105.5" font-family="Helvetica,sans-Serif" font-size="10.00">::Tree::lca</text>
</a>
</g>
</g>
<!-- Node14&#45;&gt;Node16 -->
<g id="edge15" class="edge">
<title>Node14&#45;&gt;Node16</title>
<path fill="none" stroke="midnightblue" d="M249.17,-188.39C254.25,-185.38 259.31,-182.21 264,-179 281.18,-167.22 282.69,-160.58 300,-149 302.11,-147.59 304.3,-146.19 306.54,-144.81"/>
<polygon fill="midnightblue" stroke="midnightblue" points="308.48,-147.73 315.31,-139.63 304.92,-141.7 308.48,-147.73"/>
</g>
<!-- Node17 -->
<g id="node17" class="node">
<title>Node17</title>
<g id="a_node17"><a xlink:href="../../d1/d51/classrange__queries_1_1heavy__light__decomposition_1_1_tree.html#ac7761255f2ba06b398b9aae5e4dce5f3" target="_top" xlink:title="The function lifts a node, k units up the tree. The lifting is done in place, and the result is store...">
<polygon fill="white" stroke="black" points="452,-98.5 452,-139.5 562,-139.5 562,-98.5 452,-98.5"/>
<text text-anchor="start" x="460" y="-127.5" font-family="Helvetica,sans-Serif" font-size="10.00">range_queries::heavy</text>
<text text-anchor="start" x="460" y="-116.5" font-family="Helvetica,sans-Serif" font-size="10.00">_light_decomposition</text>
<text text-anchor="middle" x="507" y="-105.5" font-family="Helvetica,sans-Serif" font-size="10.00">::Tree::lift</text>
</a>
</g>
</g>
<!-- Node16&#45;&gt;Node17 -->
<g id="edge16" class="edge">
<title>Node16&#45;&gt;Node17</title>
<path fill="none" stroke="midnightblue" d="M413.32,-119C422.57,-119 432.25,-119 441.73,-119"/>
<polygon fill="midnightblue" stroke="midnightblue" points="441.9,-122.5 451.9,-119 441.9,-115.5 441.9,-122.5"/>
</g>
<!-- Node19 -->
<g id="node19" class="node">
<title>Node19</title>
<g id="a_node19"><a target="_blank" xlink:href="http://en.cppreference.com/w/cpp/container/vector/size.html#" xlink:title=" ">
<polygon fill="white" stroke="black" points="314.5,-60.5 314.5,-79.5 401.5,-79.5 401.5,-60.5 314.5,-60.5"/>
<text text-anchor="middle" x="358" y="-67.5" font-family="Helvetica,sans-Serif" font-size="10.00">std::vector::size</text>
</a>
</g>
</g>
<!-- Node18&#45;&gt;Node19 -->
<g id="edge18" class="edge">
<title>Node18&#45;&gt;Node19</title>
<path fill="none" stroke="midnightblue" d="M249.17,-128.39C254.25,-125.38 259.31,-122.21 264,-119 281.18,-107.22 281.81,-99.14 300,-89 303.74,-86.92 307.75,-85.01 311.84,-83.28"/>
<polygon fill="midnightblue" stroke="midnightblue" points="313.39,-86.44 321.46,-79.57 310.87,-79.91 313.39,-86.44"/>
</g>
<!-- Node21 -->
<g id="node21" class="node">
<title>Node21</title>
<g id="a_node21"><a xlink:href="../../d9/d35/classrange__queries_1_1heavy__light__decomposition_1_1_s_g.html#a3c75bf5770790f8eba8cc92227b5400c" target="_top" xlink:title="Update the value at a node.">
<polygon fill="white" stroke="black" points="303,-0.5 303,-41.5 413,-41.5 413,-0.5 303,-0.5"/>
<text text-anchor="start" x="311" y="-29.5" font-family="Helvetica,sans-Serif" font-size="10.00">range_queries::heavy</text>
<text text-anchor="start" x="311" y="-18.5" font-family="Helvetica,sans-Serif" font-size="10.00">_light_decomposition</text>
<text text-anchor="middle" x="358" y="-7.5" font-family="Helvetica,sans-Serif" font-size="10.00">::SG::update</text>
</a>
</g>
</g>
<!-- Node20&#45;&gt;Node21 -->
<g id="edge20" class="edge">
<title>Node20&#45;&gt;Node21</title>
<path fill="none" stroke="midnightblue" d="M254.5,-68.41C269.9,-61.29 287.33,-53.23 303.38,-45.8"/>
<polygon fill="midnightblue" stroke="midnightblue" points="305.04,-48.89 312.65,-41.52 302.1,-42.54 305.04,-48.89"/>
</g>
<!-- Node22&#45;&gt;Node3 -->
<g id="edge22" class="edge">
<title>Node22&#45;&gt;Node3</title>
<path fill="none" stroke="midnightblue" d="M109.57,-229.57C112.63,-232.35 115.69,-235.58 118,-239 143.96,-277.46 123.83,-301.75 154,-337 154.73,-337.86 155.5,-338.69 156.29,-339.51"/>
<polygon fill="midnightblue" stroke="midnightblue" points="154.21,-342.34 164.02,-346.33 158.84,-337.09 154.21,-342.34"/>
</g>
<!-- Node22&#45;&gt;Node5 -->
<g id="edge23" class="edge">
<title>Node22&#45;&gt;Node5</title>
<path fill="none" stroke="midnightblue" d="M109.15,-229.88C112.22,-232.67 115.38,-235.81 118,-239 137.74,-263.03 129.9,-279.34 154,-299 159.38,-303.39 165.85,-306.8 172.41,-309.44"/>
<polygon fill="midnightblue" stroke="midnightblue" points="171.37,-312.78 181.97,-312.77 173.68,-306.17 171.37,-312.78"/>
</g>
<!-- Node22&#45;&gt;Node6 -->
<g id="edge24" class="edge">
<title>Node22&#45;&gt;Node6</title>
<path fill="none" stroke="midnightblue" d="M118.14,-229.33C127.86,-233.62 139.91,-238.94 151.98,-244.27"/>
<polygon fill="midnightblue" stroke="midnightblue" points="150.63,-247.5 161.19,-248.34 153.45,-241.1 150.63,-247.5"/>
</g>
<!-- Node22&#45;&gt;Node14 -->
<g id="edge25" class="edge">
<title>Node22&#45;&gt;Node14</title>
<path fill="none" stroke="midnightblue" d="M118.14,-217.91C125.62,-217.16 134.48,-216.29 143.67,-215.38"/>
<polygon fill="midnightblue" stroke="midnightblue" points="144.11,-218.85 153.72,-214.38 143.42,-211.88 144.11,-218.85"/>
</g>
<!-- Node22&#45;&gt;Node18 -->
<g id="edge26" class="edge">
<title>Node22&#45;&gt;Node18</title>
<path fill="none" stroke="midnightblue" d="M109.39,-210.45C120.74,-201.85 138.15,-189.06 154,-179 156.18,-177.62 158.43,-176.23 160.71,-174.85"/>
<polygon fill="midnightblue" stroke="midnightblue" points="162.78,-177.69 169.62,-169.6 159.23,-171.66 162.78,-177.69"/>
</g>
<!-- Node22&#45;&gt;Node20 -->
<g id="edge27" class="edge">
<title>Node22&#45;&gt;Node20</title>
<path fill="none" stroke="midnightblue" d="M100.42,-210.24C107.65,-190.79 126.14,-146.67 154,-119 155.07,-117.94 156.19,-116.9 157.34,-115.89"/>
<polygon fill="midnightblue" stroke="midnightblue" points="159.66,-118.52 165.4,-109.61 155.36,-113 159.66,-118.52"/>
</g>
</g>
</svg>
        <g id="navigator" transform="translate(0 0)" fill="#404254">
                <rect fill="#f2f5e9" fill-opacity="0.5" stroke="#606060" stroke-width=".5" x="0" y="0" width="60" height="60"/>
                <use id="zoomplus" xlink:href="#zoomPlus" x="17" y="9" onmousedown="handleZoom(evt,'in')"/>
                <use id="zoomminus" xlink:href="#zoomMin" x="42" y="9" onmousedown="handleZoom(evt,'out')"/>
                <use id="reset" xlink:href="#resetDef" x="30" y="36" onmousedown="handleReset()"/>
                <g id="arrowUp" xlink:href="#dirArrow" transform="translate(30 24)" onmousedown="handlePan(0,-1)">
                  <use xlink:href="#rim" fill="#404040">
                        <set attributeName="fill" to="#808080" begin="arrowUp.mouseover" end="arrowUp.mouseout"/>
                  </use>
                  <path fill="none" stroke="white" stroke-width="1.5" d="M0,-3.0v7 M-2.5,-0.5L0,-3.0L2.5,-0.5"/>
                </g>
                <g id="arrowRight" xlink:href="#dirArrow" transform="rotate(90) translate(36 -43)" onmousedown="handlePan(1,0)">
                  <use xlink:href="#rim" fill="#404040">
                        <set attributeName="fill" to="#808080" begin="arrowRight.mouseover" end="arrowRight.mouseout"/>
                  </use>
                  <path fill="none" stroke="white" stroke-width="1.5" d="M0,-3.0v7 M-2.5,-0.5L0,-3.0L2.5,-0.5"/>
                </g>
                <g id="arrowDown" xlink:href="#dirArrow" transform="rotate(180) translate(-30 -48)" onmousedown="handlePan(0,1)">
                  <use xlink:href="#rim" fill="#404040">
                        <set attributeName="fill" to="#808080" begin="arrowDown.mouseover" end="arrowDown.mouseout"/>
                  </use>
                  <path fill="none" stroke="white" stroke-width="1.5" d="M0,-3.0v7 M-2.5,-0.5L0,-3.0L2.5,-0.5"/>
                </g>
                <g id="arrowLeft" xlink:href="#dirArrow" transform="rotate(270) translate(-36 17)" onmousedown="handlePan(-1,0)">
                  <use xlink:href="#rim" fill="#404040">
                        <set attributeName="fill" to="#808080" begin="arrowLeft.mouseover" end="arrowLeft.mouseout"/>
                  </use>
                  <path fill="none" stroke="white" stroke-width="1.5" d="M0,-3.0v7 M-2.5,-0.5L0,-3.0L2.5,-0.5"/>
                </g>
        </g>
        <svg viewBox="0 0 15 15" width="100%" height="30px" preserveAspectRatio="xMaxYMin meet">
         <g id="arrow_out" transform="scale(0.3 0.3)">
          <a xlink:href="heavy__light__decomposition_8cpp_ae66f6b31b5ad750f1fe042a706a4e3d4_cgraph_org.svg" target="_base">
           <rect id="button" ry="5" rx="5" y="6" x="6" height="38" width="38"
                fill="#f2f5e9" fill-opacity="0.5" stroke="#606060" stroke-width="1.0"/>
           <path id="arrow"
             d="M 11.500037,31.436501 C 11.940474,20.09759 22.043105,11.32322 32.158766,21.979434 L 37.068811,17.246167 C 37.068811,17.246167 37.088388,32 37.088388,32 L 22.160133,31.978069 C 22.160133,31.978069 26.997745,27.140456 26.997745,27.140456 C 18.528582,18.264221 13.291696,25.230495 11.500037,31.436501 z"
             style="fill:#404040;"/>
          </a>
         </g>
        </svg>
</svg>
