<?xml version="1.0" encoding="UTF-8" standalone="no"?>
<!DOCTYPE svg PUBLIC "-//W3C//DTD SVG 1.1//EN"
 "http://www.w3.org/Graphics/SVG/1.1/DTD/svg11.dtd">
<!-- Generated by graphviz version 2.44.1 (20200629.0846)
 -->
<!-- Title: main Pages: 1 -->
<svg width="570pt" height="594pt"
 viewBox="0.00 0.00 570.00 594.49" xmlns="http://www.w3.org/2000/svg" xmlns:xlink="http://www.w3.org/1999/xlink">
<g id="graph0" class="graph" transform="scale(1 1) rotate(0) translate(4 590.49)">
<title>main</title>
<polygon fill="white" stroke="transparent" points="-4,4 -4,-590.49 566,-590.49 566,4 -4,4"/>
<!-- Node1 -->
<g id="node1" class="node">
<title>Node1</title>
<g id="a_node1"><a xlink:title=" ">
<polygon fill="#bfbfbf" stroke="black" points="0,-179.99 0,-198.99 38,-198.99 38,-179.99 0,-179.99"/>
<text text-anchor="middle" x="19" y="-186.99" font-family="Helvetica,sans-Serif" font-size="10.00">main</text>
</a>
</g>
</g>
<!-- Node2 -->
<g id="node2" class="node">
<title>Node2</title>
<g id="a_node2"><a xlink:href="../../d2/de9/heavy__light__decomposition_8cpp.html#a34b8683a2b429de5cce57e6d733ec817" target="_top" xlink:title=" ">
<polygon fill="white" stroke="black" points="74,-203.99 74,-222.99 118,-222.99 118,-203.99 74,-203.99"/>
<text text-anchor="middle" x="96" y="-210.99" font-family="Helvetica,sans-Serif" font-size="10.00">test_1</text>
</a>
</g>
</g>
<!-- Node1&#45;&gt;Node2 -->
<g id="edge1" class="edge">
<title>Node1&#45;&gt;Node2</title>
<path fill="none" stroke="midnightblue" d="M38.16,-195.3C45.97,-197.8 55.32,-200.8 64.16,-203.63"/>
<polygon fill="midnightblue" stroke="midnightblue" points="63.23,-207 73.82,-206.72 65.36,-200.34 63.23,-207"/>
</g>
<!-- Node21 -->
<g id="node21" class="node">
<title>Node21</title>
<g id="a_node21"><a xlink:href="../../d2/de9/heavy__light__decomposition_8cpp.html#a458410412185a5f09199deaff7157a8d" target="_top" xlink:title=" ">
<polygon fill="white" stroke="black" points="74,-160.99 74,-179.99 118,-179.99 118,-160.99 74,-160.99"/>
<text text-anchor="middle" x="96" y="-167.99" font-family="Helvetica,sans-Serif" font-size="10.00">test_2</text>
</a>
</g>
</g>
<!-- Node1&#45;&gt;Node21 -->
<g id="edge22" class="edge">
<title>Node1&#45;&gt;Node21</title>
<path fill="none" stroke="midnightblue" d="M38.16,-184.9C45.88,-182.94 55.12,-180.6 63.88,-178.38"/>
<polygon fill="midnightblue" stroke="midnightblue" points="64.99,-181.71 73.82,-175.86 63.27,-174.92 64.99,-181.71"/>
</g>
<!-- Node3 -->
<g id="node3" class="node">
<title>Node3</title>
<g id="a_node3"><a xlink:href="../../d1/d51/classrange__queries_1_1heavy__light__decomposition_1_1_tree.html#a79ab4601c4a95c0902ac04e779e5f54d" target="_top" xlink:title="Adds an undirected edge from node u to node v in the tree.">
<polygon fill="white" stroke="black" points="154,-124.99 154,-165.99 264,-165.99 264,-124.99 154,-124.99"/>
<text text-anchor="start" x="162" y="-153.99" font-family="Helvetica,sans-Serif" font-size="10.00">range_queries::heavy</text>
<text text-anchor="start" x="162" y="-142.99" font-family="Helvetica,sans-Serif" font-size="10.00">_light_decomposition</text>
<text text-anchor="middle" x="209" y="-131.99" font-family="Helvetica,sans-Serif" font-size="10.00">::Tree::add_edge</text>
</a>
</g>
</g>
<!-- Node2&#45;&gt;Node3 -->
<g id="edge2" class="edge">
<title>Node2&#45;&gt;Node3</title>
<path fill="none" stroke="midnightblue" d="M112.9,-203.75C126.67,-195.32 147.22,-182.73 165.69,-171.41"/>
<polygon fill="midnightblue" stroke="midnightblue" points="167.58,-174.36 174.28,-166.15 163.92,-168.39 167.58,-174.36"/>
</g>
<!-- Node4 -->
<g id="node4" class="node">
<title>Node4</title>
<g id="a_node4"><a target="_blank" xlink:href="http://en.cppreference.com/w/cpp/container/vector/push_back.html#" xlink:title=" ">
<polygon fill="white" stroke="black" points="300,-86.99 300,-105.99 416,-105.99 416,-86.99 300,-86.99"/>
<text text-anchor="middle" x="358" y="-93.99" font-family="Helvetica,sans-Serif" font-size="10.00">std::vector::push_back</text>
</a>
</g>
</g>
<!-- Node2&#45;&gt;Node4 -->
<g id="edge12" class="edge">
<title>Node2&#45;&gt;Node4</title>
<path fill="none" stroke="midnightblue" d="M118.03,-219.64C152.12,-228.23 220.07,-239.57 264,-208.49 300.18,-182.9 267.92,-146.08 300,-115.49 301.66,-113.92 303.45,-112.47 305.34,-111.14"/>
<polygon fill="midnightblue" stroke="midnightblue" points="307.24,-114.08 314.15,-106.05 303.74,-108.02 307.24,-114.08"/>
</g>
<!-- Node5 -->
<g id="node5" class="node">
<title>Node5</title>
<g id="a_node5"><a xlink:href="../../d2/d8a/classrange__queries_1_1heavy__light__decomposition_1_1_h_l_d.html#ae9e979edd69678b85665c01e2ee97828" target="_top" xlink:title="This function must be called after the tree adjacency list and node values are populated The function...">
<polygon fill="white" stroke="black" points="154,-260.99 154,-301.99 264,-301.99 264,-260.99 154,-260.99"/>
<text text-anchor="start" x="162" y="-289.99" font-family="Helvetica,sans-Serif" font-size="10.00">range_queries::heavy</text>
<text text-anchor="start" x="162" y="-278.99" font-family="Helvetica,sans-Serif" font-size="10.00">_light_decomposition</text>
<text text-anchor="middle" x="209" y="-267.99" font-family="Helvetica,sans-Serif" font-size="10.00">::HLD::init</text>
</a>
</g>
</g>
<!-- Node2&#45;&gt;Node5 -->
<g id="edge4" class="edge">
<title>Node2&#45;&gt;Node5</title>
<path fill="none" stroke="midnightblue" d="M112.9,-223.24C126.67,-231.67 147.22,-244.26 165.69,-255.58"/>
<polygon fill="midnightblue" stroke="midnightblue" points="163.92,-258.6 174.28,-260.84 167.58,-252.63 163.92,-258.6"/>
</g>
<!-- Node13 -->
<g id="node13" class="node">
<title>Node13</title>
<g id="a_node13"><a xlink:href="../../d2/d8a/classrange__queries_1_1heavy__light__decomposition_1_1_h_l_d.html#a4dfbf5d9df825eeb63b294c6849bdcab" target="_top" xlink:title="This function returns the sum of node values in the simple path from from node_1 to node_2.">
<polygon fill="white" stroke="black" points="154,-432.99 154,-473.99 264,-473.99 264,-432.99 154,-432.99"/>
<text text-anchor="start" x="162" y="-461.99" font-family="Helvetica,sans-Serif" font-size="10.00">range_queries::heavy</text>
<text text-anchor="start" x="162" y="-450.99" font-family="Helvetica,sans-Serif" font-size="10.00">_light_decomposition</text>
<text text-anchor="middle" x="209" y="-439.99" font-family="Helvetica,sans-Serif" font-size="10.00">::HLD::query</text>
</a>
</g>
</g>
<!-- Node2&#45;&gt;Node13 -->
<g id="edge13" class="edge">
<title>Node2&#45;&gt;Node13</title>
<path fill="none" stroke="midnightblue" d="M99.6,-223.07C106.58,-248.2 127.1,-317.78 154,-371.49 163.19,-389.84 175.67,-409.06 186.33,-424.28"/>
<polygon fill="midnightblue" stroke="midnightblue" points="183.7,-426.63 192.35,-432.74 189.4,-422.57 183.7,-426.63"/>
</g>
<!-- Node17 -->
<g id="node17" class="node">
<title>Node17</title>
<g id="a_node17"><a xlink:href="../../d1/d51/classrange__queries_1_1heavy__light__decomposition_1_1_tree.html#a04cd96efaba147b19d3afc769b90ff70" target="_top" xlink:title="Set the values for all the nodes.">
<polygon fill="white" stroke="black" points="154,-26.99 154,-67.99 264,-67.99 264,-26.99 154,-26.99"/>
<text text-anchor="start" x="162" y="-55.99" font-family="Helvetica,sans-Serif" font-size="10.00">range_queries::heavy</text>
<text text-anchor="start" x="162" y="-44.99" font-family="Helvetica,sans-Serif" font-size="10.00">_light_decomposition</text>
<text text-anchor="middle" x="209" y="-33.99" font-family="Helvetica,sans-Serif" font-size="10.00">::Tree::set_node_val</text>
</a>
</g>
</g>
<!-- Node2&#45;&gt;Node17 -->
<g id="edge17" class="edge">
<title>Node2&#45;&gt;Node17</title>
<path fill="none" stroke="midnightblue" d="M106.63,-203.7C110.44,-199.53 114.69,-194.48 118,-189.49 138.22,-159.02 134.51,-146.44 154,-115.49 162.62,-101.81 173.49,-87.66 183.22,-75.83"/>
<polygon fill="midnightblue" stroke="midnightblue" points="186,-77.96 189.73,-68.05 180.63,-73.47 186,-77.96"/>
</g>
<!-- Node18 -->
<g id="node18" class="node">
<title>Node18</title>
<g id="a_node18"><a target="_blank" xlink:href="http://en.cppreference.com/w/cpp/container/vector/size.html#" xlink:title=" ">
<polygon fill="white" stroke="black" points="314.5,-37.99 314.5,-56.99 401.5,-56.99 401.5,-37.99 314.5,-37.99"/>
<text text-anchor="middle" x="358" y="-44.99" font-family="Helvetica,sans-Serif" font-size="10.00">std::vector::size</text>
</a>
</g>
</g>
<!-- Node2&#45;&gt;Node18 -->
<g id="edge19" class="edge">
<title>Node2&#45;&gt;Node18</title>
<path fill="none" stroke="midnightblue" d="M118.14,-211.2C158.04,-206.48 242.4,-194.49 264,-175.49 298.85,-144.85 269.43,-112.4 300,-77.49 305.54,-71.16 312.75,-65.96 320.17,-61.78"/>
<polygon fill="midnightblue" stroke="midnightblue" points="322.23,-64.65 329.56,-57 319.06,-58.41 322.23,-64.65"/>
</g>
<!-- Node19 -->
<g id="node19" class="node">
<title>Node19</title>
<g id="a_node19"><a xlink:href="../../d2/d8a/classrange__queries_1_1heavy__light__decomposition_1_1_h_l_d.html#a9f1cb54ed09fde931bf3220d75ee4c57" target="_top" xlink:title="This function updates the value at node with val.">
<polygon fill="white" stroke="black" points="154,-320.99 154,-361.99 264,-361.99 264,-320.99 154,-320.99"/>
<text text-anchor="start" x="162" y="-349.99" font-family="Helvetica,sans-Serif" font-size="10.00">range_queries::heavy</text>
<text text-anchor="start" x="162" y="-338.99" font-family="Helvetica,sans-Serif" font-size="10.00">_light_decomposition</text>
<text text-anchor="middle" x="209" y="-327.99" font-family="Helvetica,sans-Serif" font-size="10.00">::HLD::update</text>
</a>
</g>
</g>
<!-- Node2&#45;&gt;Node19 -->
<g id="edge20" class="edge">
<title>Node2&#45;&gt;Node19</title>
<path fill="none" stroke="midnightblue" d="M100.61,-223.25C108.06,-242.27 126.74,-284.76 154,-311.49 155.08,-312.55 156.2,-313.58 157.36,-314.59"/>
<polygon fill="midnightblue" stroke="midnightblue" points="155.39,-317.49 165.44,-320.84 159.67,-311.95 155.39,-317.49"/>
</g>
<!-- Node3&#45;&gt;Node4 -->
<g id="edge3" class="edge">
<title>Node3&#45;&gt;Node4</title>
<path fill="none" stroke="midnightblue" d="M264.32,-127.39C282.34,-121.38 302,-114.83 318.57,-109.3"/>
<polygon fill="midnightblue" stroke="midnightblue" points="320.06,-112.5 328.44,-106.01 317.85,-105.86 320.06,-112.5"/>
</g>
<!-- Node6 -->
<g id="node6" class="node">
<title>Node6</title>
<g id="a_node6"><a xlink:href="../../d9/d35/classrange__queries_1_1heavy__light__decomposition_1_1_s_g.html#a41c733f5f5e262b308f7cb95c88c1e74" target="_top" xlink:title="Function that specifies the type of operation involved when segments are combined.">
<polygon fill="white" stroke="black" points="303,-184.99 303,-225.99 413,-225.99 413,-184.99 303,-184.99"/>
<text text-anchor="start" x="311" y="-213.99" font-family="Helvetica,sans-Serif" font-size="10.00">range_queries::heavy</text>
<text text-anchor="start" x="311" y="-202.99" font-family="Helvetica,sans-Serif" font-size="10.00">_light_decomposition</text>
<text text-anchor="middle" x="358" y="-191.99" font-family="Helvetica,sans-Serif" font-size="10.00">::SG::combine</text>
</a>
</g>
</g>
<!-- Node5&#45;&gt;Node6 -->
<g id="edge5" class="edge">
<title>Node5&#45;&gt;Node6</title>
<path fill="none" stroke="midnightblue" d="M249.78,-260.93C267.76,-251.63 289.17,-240.56 308.11,-230.77"/>
<polygon fill="midnightblue" stroke="midnightblue" points="309.91,-233.78 317.19,-226.08 306.7,-227.56 309.91,-233.78"/>
</g>
<!-- Node7 -->
<g id="node7" class="node">
<title>Node7</title>
<g id="a_node7"><a xlink:href="../../d2/d8a/classrange__queries_1_1heavy__light__decomposition_1_1_h_l_d.html#af64848d6630c39d0f09ce2359cc7c4f8" target="_top" xlink:title="Utility function to assign heavy child to each node (&#45;1 for a leaf node)">
<polygon fill="white" stroke="black" points="303,-124.99 303,-165.99 413,-165.99 413,-124.99 303,-124.99"/>
<text text-anchor="start" x="311" y="-153.99" font-family="Helvetica,sans-Serif" font-size="10.00">range_queries::heavy</text>
<text text-anchor="start" x="311" y="-142.99" font-family="Helvetica,sans-Serif" font-size="10.00">_light_decomposition</text>
<text text-anchor="middle" x="358" y="-131.99" font-family="Helvetica,sans-Serif" font-size="10.00">::HLD::dfs_hc</text>
</a>
</g>
</g>
<!-- Node5&#45;&gt;Node7 -->
<g id="edge6" class="edge">
<title>Node5&#45;&gt;Node7</title>
<path fill="none" stroke="midnightblue" d="M247.49,-260.93C253.45,-256.66 259.22,-251.81 264,-246.49 287.66,-220.19 275.17,-200.7 300,-175.49 301.05,-174.42 302.16,-173.38 303.29,-172.37"/>
<polygon fill="midnightblue" stroke="midnightblue" points="305.57,-175.04 311.29,-166.12 301.26,-169.52 305.57,-175.04"/>
</g>
<!-- Node8 -->
<g id="node8" class="node">
<title>Node8</title>
<g id="a_node8"><a xlink:href="../../d2/d8a/classrange__queries_1_1heavy__light__decomposition_1_1_h_l_d.html#a0579062b384e54b611b80c6337c7f2c8" target="_top" xlink:title="Utility function to lable the nodes so that heavy chains have a contigous lable.">
<polygon fill="white" stroke="black" points="303,-364.99 303,-405.99 413,-405.99 413,-364.99 303,-364.99"/>
<text text-anchor="start" x="311" y="-393.99" font-family="Helvetica,sans-Serif" font-size="10.00">range_queries::heavy</text>
<text text-anchor="start" x="311" y="-382.99" font-family="Helvetica,sans-Serif" font-size="10.00">_light_decomposition</text>
<text text-anchor="middle" x="358" y="-371.99" font-family="Helvetica,sans-Serif" font-size="10.00">::HLD::dfs_labels</text>
</a>
</g>
</g>
<!-- Node5&#45;&gt;Node8 -->
<g id="edge7" class="edge">
<title>Node5&#45;&gt;Node8</title>
<path fill="none" stroke="midnightblue" d="M250.91,-302.01C255.5,-304.95 259.97,-308.12 264,-311.49 283.39,-327.7 280.43,-339.51 300,-355.49 301.56,-356.77 303.18,-358.01 304.85,-359.22"/>
<polygon fill="midnightblue" stroke="midnightblue" points="303.23,-362.35 313.49,-364.99 307.12,-356.53 303.23,-362.35"/>
</g>
<!-- Node9 -->
<g id="node9" class="node">
<title>Node9</title>
<g id="a_node9"><a xlink:href="../../d2/d8a/classrange__queries_1_1heavy__light__decomposition_1_1_h_l_d.html#a2dfbda148aad0bfaba2ebfda9ebc915a" target="_top" xlink:title="Utility function to assign highest parent that can be reached though heavy chains.">
<polygon fill="white" stroke="black" points="303,-304.99 303,-345.99 413,-345.99 413,-304.99 303,-304.99"/>
<text text-anchor="start" x="311" y="-333.99" font-family="Helvetica,sans-Serif" font-size="10.00">range_queries::heavy</text>
<text text-anchor="start" x="311" y="-322.99" font-family="Helvetica,sans-Serif" font-size="10.00">_light_decomposition</text>
<text text-anchor="middle" x="358" y="-311.99" font-family="Helvetica,sans-Serif" font-size="10.00">::HLD::dfs_par</text>
</a>
</g>
</g>
<!-- Node5&#45;&gt;Node9 -->
<g id="edge8" class="edge">
<title>Node5&#45;&gt;Node9</title>
<path fill="none" stroke="midnightblue" d="M264.32,-297.75C273.67,-300.55 283.46,-303.48 293.03,-306.35"/>
<polygon fill="midnightblue" stroke="midnightblue" points="292.32,-309.79 302.9,-309.3 294.33,-303.08 292.32,-309.79"/>
</g>
<!-- Node10 -->
<g id="node10" class="node">
<title>Node10</title>
<g id="a_node10"><a xlink:href="../../d1/d51/classrange__queries_1_1heavy__light__decomposition_1_1_tree.html#ad22d760a5a33545a70e7ea5e1786c8dc" target="_top" xlink:title="This function must be called after the tree adjacency list and node values are populated The function...">
<polygon fill="white" stroke="black" points="303,-244.99 303,-285.99 413,-285.99 413,-244.99 303,-244.99"/>
<text text-anchor="start" x="311" y="-273.99" font-family="Helvetica,sans-Serif" font-size="10.00">range_queries::heavy</text>
<text text-anchor="start" x="311" y="-262.99" font-family="Helvetica,sans-Serif" font-size="10.00">_light_decomposition</text>
<text text-anchor="middle" x="358" y="-251.99" font-family="Helvetica,sans-Serif" font-size="10.00">::Tree::init</text>
</a>
</g>
</g>
<!-- Node5&#45;&gt;Node10 -->
<g id="edge9" class="edge">
<title>Node5&#45;&gt;Node10</title>
<path fill="none" stroke="midnightblue" d="M264.32,-275.58C273.57,-274.58 283.25,-273.52 292.73,-272.49"/>
<polygon fill="midnightblue" stroke="midnightblue" points="293.34,-275.94 302.9,-271.38 292.58,-268.99 293.34,-275.94"/>
</g>
<!-- Node11 -->
<g id="node11" class="node">
<title>Node11</title>
<g id="a_node11"><a xlink:href="../../d1/d51/classrange__queries_1_1heavy__light__decomposition_1_1_tree.html#ae8de7aefcb6635d3dacdd174cd4890c4" target="_top" xlink:title="Utility function to populate the t_par vector.">
<polygon fill="white" stroke="black" points="452,-214.99 452,-255.99 562,-255.99 562,-214.99 452,-214.99"/>
<text text-anchor="start" x="460" y="-243.99" font-family="Helvetica,sans-Serif" font-size="10.00">range_queries::heavy</text>
<text text-anchor="start" x="460" y="-232.99" font-family="Helvetica,sans-Serif" font-size="10.00">_light_decomposition</text>
<text text-anchor="middle" x="507" y="-221.99" font-family="Helvetica,sans-Serif" font-size="10.00">::Tree::dfs_lca</text>
</a>
</g>
</g>
<!-- Node10&#45;&gt;Node11 -->
<g id="edge10" class="edge">
<title>Node10&#45;&gt;Node11</title>
<path fill="none" stroke="midnightblue" d="M413.32,-254.41C422.67,-252.5 432.46,-250.5 442.03,-248.55"/>
<polygon fill="midnightblue" stroke="midnightblue" points="442.81,-251.96 451.9,-246.53 441.41,-245.1 442.81,-251.96"/>
</g>
<!-- Node12 -->
<g id="node12" class="node">
<title>Node12</title>
<g id="a_node12"><a xlink:href="../../d1/d51/classrange__queries_1_1heavy__light__decomposition_1_1_tree.html#aa339c31ec74cd86a4842a8b09653d460" target="_top" xlink:title="Utility function to compute sub&#45;tree sizes.">
<polygon fill="white" stroke="black" points="452,-274.99 452,-315.99 562,-315.99 562,-274.99 452,-274.99"/>
<text text-anchor="start" x="460" y="-303.99" font-family="Helvetica,sans-Serif" font-size="10.00">range_queries::heavy</text>
<text text-anchor="start" x="460" y="-292.99" font-family="Helvetica,sans-Serif" font-size="10.00">_light_decomposition</text>
<text text-anchor="middle" x="507" y="-281.99" font-family="Helvetica,sans-Serif" font-size="10.00">::Tree::dfs_size</text>
</a>
</g>
</g>
<!-- Node10&#45;&gt;Node12 -->
<g id="edge11" class="edge">
<title>Node10&#45;&gt;Node12</title>
<path fill="none" stroke="midnightblue" d="M413.32,-276.58C422.67,-278.49 432.46,-280.49 442.03,-282.44"/>
<polygon fill="midnightblue" stroke="midnightblue" points="441.41,-285.88 451.9,-284.45 442.81,-279.03 441.41,-285.88"/>
</g>
<!-- Node14 -->
<g id="node14" class="node">
<title>Node14</title>
<g id="a_node14"><a xlink:href="../../d2/d8a/classrange__queries_1_1heavy__light__decomposition_1_1_h_l_d.html#a7d5b40c076347a6aabfb37a0590f2f24" target="_top" xlink:title="Utility function to break down a path query into two chain queries.">
<polygon fill="white" stroke="black" points="303,-544.99 303,-585.99 413,-585.99 413,-544.99 303,-544.99"/>
<text text-anchor="start" x="311" y="-573.99" font-family="Helvetica,sans-Serif" font-size="10.00">range_queries::heavy</text>
<text text-anchor="start" x="311" y="-562.99" font-family="Helvetica,sans-Serif" font-size="10.00">_light_decomposition</text>
<text text-anchor="middle" x="358" y="-551.99" font-family="Helvetica,sans-Serif" font-size="10.00">::HLD::chain_query</text>
</a>
</g>
</g>
<!-- Node13&#45;&gt;Node14 -->
<g id="edge14" class="edge">
<title>Node13&#45;&gt;Node14</title>
<path fill="none" stroke="midnightblue" d="M229.81,-474.31C247.25,-491.93 273.87,-517.17 300,-535.49 301.9,-536.82 303.86,-538.14 305.87,-539.42"/>
<polygon fill="midnightblue" stroke="midnightblue" points="304.5,-542.69 314.87,-544.89 308.14,-536.71 304.5,-542.69"/>
</g>
<!-- Node15 -->
<g id="node15" class="node">
<title>Node15</title>
<g id="a_node15"><a xlink:href="../../d1/d51/classrange__queries_1_1heavy__light__decomposition_1_1_tree.html#ae2b407e64aaf9878fbee7ee6efe9c7d4" target="_top" xlink:title="The function returns the least common ancestor of two nodes.">
<polygon fill="white" stroke="black" points="303,-484.99 303,-525.99 413,-525.99 413,-484.99 303,-484.99"/>
<text text-anchor="start" x="311" y="-513.99" font-family="Helvetica,sans-Serif" font-size="10.00">range_queries::heavy</text>
<text text-anchor="start" x="311" y="-502.99" font-family="Helvetica,sans-Serif" font-size="10.00">_light_decomposition</text>
<text text-anchor="middle" x="358" y="-491.99" font-family="Helvetica,sans-Serif" font-size="10.00">::Tree::lca</text>
</a>
</g>
</g>
<!-- Node13&#45;&gt;Node15 -->
<g id="edge15" class="edge">
<title>Node13&#45;&gt;Node15</title>
<path fill="none" stroke="midnightblue" d="M264.32,-472.71C273.77,-476.05 283.67,-479.55 293.34,-482.97"/>
<polygon fill="midnightblue" stroke="midnightblue" points="292.31,-486.32 302.9,-486.36 294.64,-479.72 292.31,-486.32"/>
</g>
<!-- Node16 -->
<g id="node16" class="node">
<title>Node16</title>
<g id="a_node16"><a xlink:href="../../d1/d51/classrange__queries_1_1heavy__light__decomposition_1_1_tree.html#ac7761255f2ba06b398b9aae5e4dce5f3" target="_top" xlink:title="The function lifts a node, k units up the tree. The lifting is done in place, and the result is store...">
<polygon fill="white" stroke="black" points="452,-484.99 452,-525.99 562,-525.99 562,-484.99 452,-484.99"/>
<text text-anchor="start" x="460" y="-513.99" font-family="Helvetica,sans-Serif" font-size="10.00">range_queries::heavy</text>
<text text-anchor="start" x="460" y="-502.99" font-family="Helvetica,sans-Serif" font-size="10.00">_light_decomposition</text>
<text text-anchor="middle" x="507" y="-491.99" font-family="Helvetica,sans-Serif" font-size="10.00">::Tree::lift</text>
</a>
</g>
</g>
<!-- Node15&#45;&gt;Node16 -->
<g id="edge16" class="edge">
<title>Node15&#45;&gt;Node16</title>
<path fill="none" stroke="midnightblue" d="M413.32,-505.49C422.57,-505.49 432.25,-505.49 441.73,-505.49"/>
<polygon fill="midnightblue" stroke="midnightblue" points="441.9,-508.99 451.9,-505.49 441.9,-501.99 441.9,-508.99"/>
</g>
<!-- Node17&#45;&gt;Node18 -->
<g id="edge18" class="edge">
<title>Node17&#45;&gt;Node18</title>
<path fill="none" stroke="midnightblue" d="M264.32,-47.49C277.36,-47.49 291.26,-47.49 304.22,-47.49"/>
<polygon fill="midnightblue" stroke="midnightblue" points="304.38,-50.99 314.38,-47.49 304.38,-43.99 304.38,-50.99"/>
</g>
<!-- Node20 -->
<g id="node20" class="node">
<title>Node20</title>
<g id="a_node20"><a xlink:href="../../d9/d35/classrange__queries_1_1heavy__light__decomposition_1_1_s_g.html#a3c75bf5770790f8eba8cc92227b5400c" target="_top" xlink:title="Update the value at a node.">
<polygon fill="white" stroke="black" points="303,-424.99 303,-465.99 413,-465.99 413,-424.99 303,-424.99"/>
<text text-anchor="start" x="311" y="-453.99" font-family="Helvetica,sans-Serif" font-size="10.00">range_queries::heavy</text>
<text text-anchor="start" x="311" y="-442.99" font-family="Helvetica,sans-Serif" font-size="10.00">_light_decomposition</text>
<text text-anchor="middle" x="358" y="-431.99" font-family="Helvetica,sans-Serif" font-size="10.00">::SG::update</text>
</a>
</g>
</g>
<!-- Node19&#45;&gt;Node20 -->
<g id="edge21" class="edge">
<title>Node19&#45;&gt;Node20</title>
<path fill="none" stroke="midnightblue" d="M232.31,-362.01C249.94,-377.68 275.57,-399.27 300,-415.49 302.12,-416.9 304.31,-418.3 306.55,-419.67"/>
<polygon fill="midnightblue" stroke="midnightblue" points="304.93,-422.78 315.33,-424.83 308.48,-416.75 304.93,-422.78"/>
</g>
<!-- Node21&#45;&gt;Node3 -->
<g id="edge23" class="edge">
<title>Node21&#45;&gt;Node3</title>
<path fill="none" stroke="midnightblue" d="M118.14,-165.73C125.7,-164.03 134.67,-162.01 143.96,-159.92"/>
<polygon fill="midnightblue" stroke="midnightblue" points="144.73,-163.33 153.72,-157.72 143.2,-156.5 144.73,-163.33"/>
</g>
<!-- Node21&#45;&gt;Node4 -->
<g id="edge25" class="edge">
<title>Node21&#45;&gt;Node4</title>
<path fill="none" stroke="midnightblue" d="M103.78,-160.7C113.31,-147.8 132.01,-125.59 154,-115.49 196.26,-96.09 248.6,-91.6 289.55,-91.82"/>
<polygon fill="midnightblue" stroke="midnightblue" points="289.65,-95.32 299.71,-91.98 289.76,-88.33 289.65,-95.32"/>
</g>
<!-- Node21&#45;&gt;Node5 -->
<g id="edge24" class="edge">
<title>Node21&#45;&gt;Node5</title>
<path fill="none" stroke="midnightblue" d="M106.85,-180.34C123.1,-196.6 156.11,-229.61 180.01,-253.51"/>
<polygon fill="midnightblue" stroke="midnightblue" points="177.56,-256.01 187.11,-260.6 182.51,-251.06 177.56,-256.01"/>
</g>
<!-- Node21&#45;&gt;Node13 -->
<g id="edge26" class="edge">
<title>Node21&#45;&gt;Node13</title>
<path fill="none" stroke="midnightblue" d="M107.72,-180.37C111.5,-184.41 115.45,-189.33 118,-194.49 153.62,-266.44 123.37,-297.29 154,-371.49 161.78,-390.33 174.06,-409.45 184.95,-424.49"/>
<polygon fill="midnightblue" stroke="midnightblue" points="182.39,-426.9 191.16,-432.84 188,-422.72 182.39,-426.9"/>
</g>
<!-- Node21&#45;&gt;Node17 -->
<g id="edge27" class="edge">
<title>Node21&#45;&gt;Node17</title>
<path fill="none" stroke="midnightblue" d="M101.54,-160.84C109.99,-143.58 129.55,-106.95 154,-82.49 156.93,-79.56 160.15,-76.74 163.51,-74.07"/>
<polygon fill="midnightblue" stroke="midnightblue" points="165.6,-76.87 171.53,-68.1 161.42,-71.26 165.6,-76.87"/>
</g>
<!-- Node21&#45;&gt;Node18 -->
<g id="edge28" class="edge">
<title>Node21&#45;&gt;Node18</title>
<path fill="none" stroke="midnightblue" d="M97.12,-160.74C98.07,-132.65 105.11,-51.45 154,-17.49 208.18,20.14 290.18,-12.36 331.41,-33.23"/>
<polygon fill="midnightblue" stroke="midnightblue" points="330.03,-36.45 340.51,-37.98 333.27,-30.25 330.03,-36.45"/>
</g>
<!-- Node21&#45;&gt;Node19 -->
<g id="edge29" class="edge">
<title>Node21&#45;&gt;Node19</title>
<path fill="none" stroke="midnightblue" d="M107.02,-180.05C110.9,-184.18 115.09,-189.27 118,-194.49 144.5,-242.01 119.74,-269.23 154,-311.49 154.71,-312.37 155.45,-313.22 156.22,-314.06"/>
<polygon fill="midnightblue" stroke="midnightblue" points="154.08,-316.84 163.83,-320.99 158.8,-311.67 154.08,-316.84"/>
</g>
</g>
</svg>
