<?xml version="1.0" encoding="UTF-8" standalone="no"?>
<!DOCTYPE svg PUBLIC "-//W3C//DTD SVG 1.1//EN"
 "http://www.w3.org/Graphics/SVG/1.1/DTD/svg11.dtd">
<!-- Generated by graphviz version 2.44.1 (20200629.0846)
 -->
<!-- Title: range_queries::Tree&lt; X &gt; Pages: 1 -->
<svg width="483pt" height="165pt"
 viewBox="0.00 0.00 483.00 164.50" xmlns="http://www.w3.org/2000/svg" xmlns:xlink="http://www.w3.org/1999/xlink">
<g id="graph0" class="graph" transform="scale(1 1) rotate(0) translate(4 160.5)">
<title>range_queries::Tree&lt; X &gt;</title>
<polygon fill="white" stroke="transparent" points="-4,4 -4,-160.5 479,-160.5 479,4 -4,4"/>
<!-- Node1 -->
<g id="node1" class="node">
<title>Node1</title>
<g id="a_node1"><a xlink:title="A Basic Tree, which supports binary lifting.">
<polygon fill="#bfbfbf" stroke="black" points="347,-60.5 347,-79.5 475,-79.5 475,-60.5 347,-60.5"/>
<text text-anchor="middle" x="411" y="-67.5" font-family="Helvetica,sans-Serif" font-size="10.00">range_queries::Tree&lt; X &gt;</text>
</a>
</g>
</g>
<!-- Node2 -->
<g id="node2" class="node">
<title>Node2</title>
<g id="a_node2"><a target="_blank" xlink:href="http://en.cppreference.com/w/cpp/container/vector.html" xlink:title=" ">
<polygon fill="white" stroke="black" points="156,-126 156,-156 275,-156 275,-126 156,-126"/>
<text text-anchor="start" x="164" y="-144" font-family="Helvetica,sans-Serif" font-size="10.00">std::vector&lt; std::vector</text>
<text text-anchor="middle" x="215.5" y="-133" font-family="Helvetica,sans-Serif" font-size="10.00">&lt; int &gt; &gt;</text>
</a>
</g>
</g>
<!-- Node2&#45;&gt;Node1 -->
<g id="edge1" class="edge">
<title>Node2&#45;&gt;Node1</title>
<path fill="none" stroke="#9a32cd" stroke-dasharray="5,2" d="M267.26,-122.38C304.68,-108.64 354.07,-90.52 383.85,-79.59"/>
<polygon fill="#9a32cd" stroke="#9a32cd" points="265.72,-119.21 257.54,-125.94 268.13,-125.78 265.72,-119.21"/>
<text text-anchor="middle" x="311" y="-114" font-family="Helvetica,sans-Serif" font-size="10.00"> t_par</text>
</g>
<!-- Node3 -->
<g id="node3" class="node">
<title>Node3</title>
<g id="a_node3"><a target="_blank" xlink:href="http://en.cppreference.com/w/cpp/container/vector.html" xlink:title=" ">
<polygon fill="white" stroke="black" points="163.5,-77 163.5,-107 267.5,-107 267.5,-77 163.5,-77"/>
<text text-anchor="start" x="171.5" y="-95" font-family="Helvetica,sans-Serif" font-size="10.00">std::vector&lt; std::list</text>
<text text-anchor="middle" x="215.5" y="-84" font-family="Helvetica,sans-Serif" font-size="10.00">&lt; int &gt; &gt;</text>
</a>
</g>
</g>
<!-- Node3&#45;&gt;Node1 -->
<g id="edge2" class="edge">
<title>Node3&#45;&gt;Node1</title>
<path fill="none" stroke="#9a32cd" stroke-dasharray="5,2" d="M277.82,-85.03C299.83,-82.53 324.68,-79.7 346.85,-77.18"/>
<polygon fill="#9a32cd" stroke="#9a32cd" points="277.13,-81.58 267.59,-86.19 277.92,-88.54 277.13,-81.58"/>
<text text-anchor="middle" x="311" y="-85" font-family="Helvetica,sans-Serif" font-size="10.00"> t_adj</text>
</g>
<!-- Node4 -->
<g id="node4" class="node">
<title>Node4</title>
<g id="a_node4"><a target="_blank" xlink:href="http://en.cppreference.com/w/cpp/container/list.html" xlink:title=" ">
<polygon fill="white" stroke="black" points="0,-82.5 0,-101.5 77,-101.5 77,-82.5 0,-82.5"/>
<text text-anchor="middle" x="38.5" y="-89.5" font-family="Helvetica,sans-Serif" font-size="10.00">std::list&lt; int &gt;</text>
</a>
</g>
</g>
<!-- Node4&#45;&gt;Node3 -->
<g id="edge3" class="edge">
<title>Node4&#45;&gt;Node3</title>
<path fill="none" stroke="#9a32cd" stroke-dasharray="5,2" d="M87.17,-92C110.8,-92 139.34,-92 163.41,-92"/>
<polygon fill="#9a32cd" stroke="#9a32cd" points="87.04,-88.5 77.04,-92 87.04,-95.5 87.04,-88.5"/>
<text text-anchor="middle" x="116.5" y="-95" font-family="Helvetica,sans-Serif" font-size="10.00"> elements</text>
</g>
<!-- Node5 -->
<g id="node5" class="node">
<title>Node5</title>
<g id="a_node5"><a target="_blank" xlink:href="http://en.cppreference.com/w/cpp/container/vector.html" xlink:title=" ">
<polygon fill="white" stroke="black" points="169.5,-38.5 169.5,-57.5 261.5,-57.5 261.5,-38.5 169.5,-38.5"/>
<text text-anchor="middle" x="215.5" y="-45.5" font-family="Helvetica,sans-Serif" font-size="10.00">std::vector&lt; int &gt;</text>
</a>
</g>
</g>
<!-- Node5&#45;&gt;Node1 -->
<g id="edge4" class="edge">
<title>Node5&#45;&gt;Node1</title>
<path fill="none" stroke="#9a32cd" stroke-dasharray="5,2" d="M271.73,-48.67C290.01,-49.36 310.43,-50.65 329,-53 342.83,-54.75 357.81,-57.61 371.08,-60.49"/>
<polygon fill="#9a32cd" stroke="#9a32cd" points="271.64,-45.16 261.53,-48.33 271.41,-52.16 271.64,-45.16"/>
<text text-anchor="middle" x="311" y="-67" font-family="Helvetica,sans-Serif" font-size="10.00"> t_depth</text>
<text text-anchor="middle" x="311" y="-56" font-family="Helvetica,sans-Serif" font-size="10.00">t_size</text>
</g>
<!-- Node6 -->
<g id="node6" class="node">
<title>Node6</title>
<g id="a_node6"><a target="_blank" xlink:href="http://en.cppreference.com/w/cpp/container/vector.html" xlink:title=" ">
<polygon fill="white" stroke="black" points="171.5,-0.5 171.5,-19.5 259.5,-19.5 259.5,-0.5 171.5,-0.5"/>
<text text-anchor="middle" x="215.5" y="-7.5" font-family="Helvetica,sans-Serif" font-size="10.00">std::vector&lt; X &gt;</text>
</a>
</g>
</g>
<!-- Node6&#45;&gt;Node1 -->
<g id="edge5" class="edge">
<title>Node6&#45;&gt;Node1</title>
<path fill="none" stroke="#9a32cd" stroke-dasharray="5,2" d="M269.5,-18.95C288.5,-22.77 309.92,-27.8 329,-34 351.1,-41.18 375.31,-52.42 391.45,-60.42"/>
<polygon fill="#9a32cd" stroke="#9a32cd" points="270.01,-15.48 259.52,-17 268.67,-22.35 270.01,-15.48"/>
<text text-anchor="middle" x="311" y="-37" font-family="Helvetica,sans-Serif" font-size="10.00"> t_val</text>
</g>
</g>
</svg>
