<?xml version="1.0" encoding="UTF-8" standalone="no"?>
<!DOCTYPE svg PUBLIC "-//W3C//DTD SVG 1.1//EN"
 "http://www.w3.org/Graphics/SVG/1.1/DTD/svg11.dtd">
<!-- Generated by graphviz version 2.44.1 (20200629.0846)
 -->
<!-- Title: range_queries::HLD&lt; X &gt; Pages: 1 -->
<svg width="466pt" height="254pt"
 viewBox="0.00 0.00 466.00 254.00" xmlns="http://www.w3.org/2000/svg" xmlns:xlink="http://www.w3.org/1999/xlink">
<g id="graph0" class="graph" transform="scale(1 1) rotate(0) translate(4 250)">
<title>range_queries::HLD&lt; X &gt;</title>
<polygon fill="white" stroke="transparent" points="-4,4 -4,-250 462,-250 462,4 -4,4"/>
<!-- Node1 -->
<g id="node1" class="node">
<title>Node1</title>
<g id="a_node1"><a xlink:title="The Heavy&#45;Light Decomposition class.">
<polygon fill="#bfbfbf" stroke="black" points="172,-0.5 172,-19.5 300,-19.5 300,-0.5 172,-0.5"/>
<text text-anchor="middle" x="236" y="-7.5" font-family="Helvetica,sans-Serif" font-size="10.00">range_queries::HLD&lt; X &gt;</text>
</a>
</g>
</g>
<!-- Node2 -->
<g id="node2" class="node">
<title>Node2</title>
<g id="a_node2"><a xlink:href="../../d4/d96/classrange__queries_1_1_tree.html" target="_top" xlink:title="A Basic Tree, which supports binary lifting.">
<polygon fill="white" stroke="black" points="172,-64 172,-83 300,-83 300,-64 172,-64"/>
<text text-anchor="middle" x="236" y="-71" font-family="Helvetica,sans-Serif" font-size="10.00">range_queries::Tree&lt; X &gt;</text>
</a>
</g>
</g>
<!-- Node2&#45;&gt;Node1 -->
<g id="edge1" class="edge">
<title>Node2&#45;&gt;Node1</title>
<path fill="none" stroke="midnightblue" d="M236,-53.82C236,-42.55 236,-28.72 236,-19.88"/>
<polygon fill="midnightblue" stroke="midnightblue" points="232.5,-53.95 236,-63.95 239.5,-53.95 232.5,-53.95"/>
</g>
<!-- Node3 -->
<g id="node3" class="node">
<title>Node3</title>
<g id="a_node3"><a target="_blank" xlink:href="http://en.cppreference.com/w/cpp/container/vector.html" xlink:title=" ">
<polygon fill="white" stroke="black" points="110.5,-148.5 110.5,-178.5 229.5,-178.5 229.5,-148.5 110.5,-148.5"/>
<text text-anchor="start" x="118.5" y="-166.5" font-family="Helvetica,sans-Serif" font-size="10.00">std::vector&lt; std::vector</text>
<text text-anchor="middle" x="170" y="-155.5" font-family="Helvetica,sans-Serif" font-size="10.00">&lt; int &gt; &gt;</text>
</a>
</g>
</g>
<!-- Node3&#45;&gt;Node2 -->
<g id="edge2" class="edge">
<title>Node3&#45;&gt;Node2</title>
<path fill="none" stroke="#9a32cd" stroke-dasharray="5,2" d="M186.78,-140.12C200.73,-121.53 219.81,-96.09 229.61,-83.02"/>
<polygon fill="#9a32cd" stroke="#9a32cd" points="183.8,-138.26 180.6,-148.36 189.4,-142.46 183.8,-138.26"/>
<text text-anchor="middle" x="223.5" y="-116.5" font-family="Helvetica,sans-Serif" font-size="10.00"> t_par</text>
</g>
<!-- Node4 -->
<g id="node4" class="node">
<title>Node4</title>
<g id="a_node4"><a target="_blank" xlink:href="http://en.cppreference.com/w/cpp/container/vector.html" xlink:title=" ">
<polygon fill="white" stroke="black" points="248,-148.5 248,-178.5 352,-178.5 352,-148.5 248,-148.5"/>
<text text-anchor="start" x="256" y="-166.5" font-family="Helvetica,sans-Serif" font-size="10.00">std::vector&lt; std::list</text>
<text text-anchor="middle" x="300" y="-155.5" font-family="Helvetica,sans-Serif" font-size="10.00">&lt; int &gt; &gt;</text>
</a>
</g>
</g>
<!-- Node4&#45;&gt;Node2 -->
<g id="edge3" class="edge">
<title>Node4&#45;&gt;Node2</title>
<path fill="none" stroke="#9a32cd" stroke-dasharray="5,2" d="M283.72,-140.12C270.2,-121.53 251.7,-96.09 242.19,-83.02"/>
<polygon fill="#9a32cd" stroke="#9a32cd" points="281,-142.33 289.72,-148.36 286.67,-138.22 281,-142.33"/>
<text text-anchor="middle" x="288.5" y="-116.5" font-family="Helvetica,sans-Serif" font-size="10.00"> t_adj</text>
</g>
<!-- Node5 -->
<g id="node5" class="node">
<title>Node5</title>
<g id="a_node5"><a target="_blank" xlink:href="http://en.cppreference.com/w/cpp/container/list.html" xlink:title=" ">
<polygon fill="white" stroke="black" points="261.5,-226.5 261.5,-245.5 338.5,-245.5 338.5,-226.5 261.5,-226.5"/>
<text text-anchor="middle" x="300" y="-233.5" font-family="Helvetica,sans-Serif" font-size="10.00">std::list&lt; int &gt;</text>
</a>
</g>
</g>
<!-- Node5&#45;&gt;Node4 -->
<g id="edge4" class="edge">
<title>Node5&#45;&gt;Node4</title>
<path fill="none" stroke="#9a32cd" stroke-dasharray="5,2" d="M300,-216.24C300,-204.41 300,-189.38 300,-178.58"/>
<polygon fill="#9a32cd" stroke="#9a32cd" points="296.5,-216.36 300,-226.36 303.5,-216.36 296.5,-216.36"/>
<text text-anchor="middle" x="321.5" y="-200" font-family="Helvetica,sans-Serif" font-size="10.00"> elements</text>
</g>
<!-- Node6 -->
<g id="node6" class="node">
<title>Node6</title>
<g id="a_node6"><a target="_blank" xlink:href="http://en.cppreference.com/w/cpp/container/vector.html" xlink:title=" ">
<polygon fill="white" stroke="black" points="0,-154 0,-173 92,-173 92,-154 0,-154"/>
<text text-anchor="middle" x="46" y="-161" font-family="Helvetica,sans-Serif" font-size="10.00">std::vector&lt; int &gt;</text>
</a>
</g>
</g>
<!-- Node6&#45;&gt;Node1 -->
<g id="edge9" class="edge">
<title>Node6&#45;&gt;Node1</title>
<path fill="none" stroke="#9a32cd" stroke-dasharray="5,2" d="M51.75,-144C59.94,-120.57 77.13,-80.44 105,-57 128.06,-37.61 159.83,-26.18 186.31,-19.57"/>
<polygon fill="#9a32cd" stroke="#9a32cd" points="48.34,-143.15 48.53,-153.74 54.99,-145.35 48.34,-143.15"/>
<text text-anchor="middle" x="134" y="-82" font-family="Helvetica,sans-Serif" font-size="10.00"> h_parent</text>
<text text-anchor="middle" x="134" y="-71" font-family="Helvetica,sans-Serif" font-size="10.00">h_heavychlid</text>
<text text-anchor="middle" x="134" y="-60" font-family="Helvetica,sans-Serif" font-size="10.00">h_label</text>
</g>
<!-- Node6&#45;&gt;Node2 -->
<g id="edge5" class="edge">
<title>Node6&#45;&gt;Node2</title>
<path fill="none" stroke="#9a32cd" stroke-dasharray="5,2" d="M71.69,-149.19C93.85,-137.86 126.78,-121.34 156,-108 175.59,-99.06 198.25,-89.65 214.45,-83.09"/>
<polygon fill="#9a32cd" stroke="#9a32cd" points="69.91,-146.17 62.61,-153.86 73.11,-152.4 69.91,-146.17"/>
<text text-anchor="middle" x="174" y="-122" font-family="Helvetica,sans-Serif" font-size="10.00"> t_depth</text>
<text text-anchor="middle" x="174" y="-111" font-family="Helvetica,sans-Serif" font-size="10.00">t_size</text>
</g>
<!-- Node7 -->
<g id="node7" class="node">
<title>Node7</title>
<g id="a_node7"><a target="_blank" xlink:href="http://en.cppreference.com/w/cpp/container/vector.html" xlink:title=" ">
<polygon fill="white" stroke="black" points="370,-154 370,-173 458,-173 458,-154 370,-154"/>
<text text-anchor="middle" x="414" y="-161" font-family="Helvetica,sans-Serif" font-size="10.00">std::vector&lt; X &gt;</text>
</a>
</g>
</g>
<!-- Node7&#45;&gt;Node2 -->
<g id="edge6" class="edge">
<title>Node7&#45;&gt;Node2</title>
<path fill="none" stroke="#9a32cd" stroke-dasharray="5,2" d="M387.98,-149.38C365.92,-138.29 333.44,-122.01 305,-108 287.68,-99.47 267.84,-89.85 253.9,-83.12"/>
<polygon fill="#9a32cd" stroke="#9a32cd" points="386.53,-152.57 397.04,-153.94 389.68,-146.32 386.53,-152.57"/>
<text text-anchor="middle" x="359.5" y="-116.5" font-family="Helvetica,sans-Serif" font-size="10.00"> t_val</text>
</g>
<!-- Node8 -->
<g id="node8" class="node">
<title>Node8</title>
<g id="a_node8"><a xlink:href="../../d4/d77/classrange__queries_1_1_s_g.html" target="_top" xlink:title="Segment Tree, to store heavy chains.">
<polygon fill="white" stroke="black" points="335,-64 335,-83 457,-83 457,-64 335,-64"/>
<text text-anchor="middle" x="396" y="-71" font-family="Helvetica,sans-Serif" font-size="10.00">range_queries::SG&lt; X &gt;</text>
</a>
</g>
</g>
<!-- Node7&#45;&gt;Node8 -->
<g id="edge8" class="edge">
<title>Node7&#45;&gt;Node8</title>
<path fill="none" stroke="#9a32cd" stroke-dasharray="5,2" d="M410.16,-143.74C406.34,-125.07 400.65,-97.24 397.78,-83.22"/>
<polygon fill="#9a32cd" stroke="#9a32cd" points="406.78,-144.64 412.21,-153.74 413.63,-143.24 406.78,-144.64"/>
<text text-anchor="middle" x="422.5" y="-116.5" font-family="Helvetica,sans-Serif" font-size="10.00"> s_tree</text>
</g>
<!-- Node8&#45;&gt;Node1 -->
<g id="edge7" class="edge">
<title>Node8&#45;&gt;Node1</title>
<path fill="none" stroke="midnightblue" d="M364.18,-60.27C332.87,-48.23 285.85,-30.16 258.32,-19.58"/>
<polygon fill="midnightblue" stroke="midnightblue" points="363.16,-63.63 373.75,-63.95 365.67,-57.09 363.16,-63.63"/>
</g>
</g>
</svg>
